<?xml version="1.0" encoding="utf-8" standalone="no"?>
<!-- Creator: Esri ArcMap 10.2.1.3497 -->
<!DOCTYPE svg PUBLIC "-//W3C//DTD SVG 1.1//EN"  "http://www.w3.org/Graphics/SVG/1.1/DTD/svg11.dtd">
<svg width="612pt" height="792pt" viewBox="0 0 612 792" enable-background="new 0 0 612 792"
	version="1.1" xmlns="http://www.w3.org/2000/svg" xmlns:xlink="http://www.w3.org/1999/xlink" >
	<g id="Layers">
		<g id="Metsakeskusraja_ES">
			<clipPath id="SVG_CP_1">
				<path d="M21.36151,269.50115L21.36151,21.35851L370.34623,21.35851L370.34623,269.50115L21.36151,269.50115z"/>
			</clipPath>
			<path clip-path="url(#SVG_CP_1)" fill="#EBF5C6" fill-rule="evenodd" stroke="none" d="M250.81777,34.79757L255.85812,40.79715
				L260.17843,43.19698L260.65846,43.43696L261.61853,43.91693L261.61853,45.59681L263.05863,46.55674L264.25872,48.47661L265.69882,49.19656
				L266.17885,49.91651L267.85897,50.63646L268.09899,50.87644L268.33901,52.31634L265.93884,53.03629L265.93884,53.27627L266.17885,53.27627
				L266.41887,53.27627L266.65889,53.27627L266.65889,53.51626L266.89891,53.51626L267.13892,53.51626L267.13892,53.75624L267.37894,53.75624
				L267.37894,53.99622L267.37894,53.75624L267.61896,53.75624L267.85897,53.75624L268.09899,53.75624L268.09899,53.99622L268.09899,54.23621
				L267.85897,54.23621L267.85897,54.47619L268.09899,54.47619L268.33901,54.47619L268.57902,54.47619L268.57902,54.23621L268.81904,54.47619
				L268.81904,54.71617L269.05906,54.47619L269.05906,54.71617L269.29908,54.71617L269.53909,54.71617L269.77911,54.95616L270.73918,55.91609
				L271.69925,56.39606L273.13935,55.91609L273.8594,56.87602L273.13935,58.07594L272.17928,62.39564L271.93926,63.11558L271.93926,63.35557
				L271.69925,66.47535L272.4193,66.95532L273.37937,67.43528L273.8594,68.39522L273.37937,68.87518L273.13935,69.11517L272.89933,69.35515
				L272.89933,69.59513L273.13935,69.83511L273.37937,70.0751L273.37937,70.31508L273.37937,70.55506L273.61938,70.55506L273.61938,70.79505
				L273.8594,70.79505L274.09942,70.79505L274.09942,71.03503L274.33943,71.03503L274.57945,71.27501L274.81947,71.515L275.05948,71.515
				L275.2995,71.515L277.93969,71.75498L277.93969,71.27501L277.45965,70.0751L277.45965,69.83511L277.69967,69.59513L277.69967,69.35515
				L277.93969,69.11517L278.17971,68.87518L278.17971,68.6352L278.41972,68.87518L278.41972,69.11517L278.65974,69.11517L278.89976,69.11517
				L279.13977,69.11517L279.37979,69.11517L279.61981,69.35515L279.85982,69.35515L280.09984,69.35515L280.33986,69.11517L280.57988,68.87518
				L280.57988,68.6352L280.81989,68.39522L280.81989,68.15523L281.05991,68.15523L281.05991,67.91525L281.53994,67.43528L282.25999,66.95532
				L284.66016,68.39522L286.82032,71.515L286.82032,71.99496L287.78039,79.19446L292.34071,87.83386L294.26084,91.4336L296.90103,93.59345
				L295.46093,98.6331L297.14105,105.11265L298.82117,111.59219L299.78124,115.67191L299.78124,116.39186L300.50129,117.11181L301.46135,120.23159
				L302.18141,120.95154L302.42142,120.95154L303.62151,122.8714L303.86152,122.63142L305.30163,123.11139L305.54164,123.11139L
				306.26169,123.35137L306.98175,123.35137L307.94181,123.83134L307.7018,124.55129L309.62193,126.23117L311.06203,128.39102L314.42227,131.5108
				L311.54207,137.75036L311.78209,141.11013L312.74215,141.83008L312.98217,142.55003L317.78251,148.06964L315.62236,149.50954
				L316.10239,150.46947L316.58243,150.94944L317.30248,152.14936L317.54249,153.10929L317.54249,153.82924L317.54249,154.54919
				L316.58243,159.10887L314.18226,163.66855L312.74215,164.62848L312.26212,164.86847L309.62193,167.50828L308.90188,169.66813
				L308.42185,174.46779L308.18183,174.94776L307.7018,175.42773L305.30163,176.86763L302.18141,177.82756L298.34113,180.22739L
				290.90061,189.10677L290.42057,189.82672L289.70052,191.98657L289.70052,192.22655L289.22049,193.66645L288.74045,194.86637L
				287.54037,194.86637L285.86025,194.62638L282.01998,196.06628L276.01955,197.98615L273.61938,198.94608L272.4193,198.94608L271.93926,198.94608
				L271.21921,198.7061L270.9792,198.7061L270.73918,198.7061L270.49916,198.7061L270.25914,198.7061L268.33901,198.7061L267.13892,198.22613
				L262.33858,200.38598L261.61853,199.90602L261.37851,200.146L260.89848,199.90602L259.21836,199.42605L258.49831,199.42605L258.25829,199.18607
				L258.01828,199.18607L257.77826,198.94608L257.53824,198.94608L257.29823,198.94608L257.05821,199.18607L257.53824,202.30585
				L257.05821,203.50576L257.29823,204.22571L257.05821,204.4657L256.81819,204.4657L256.57817,204.70568L256.33816,204.70568L255.61811,205.42563
				L255.61811,207.82546L255.37809,207.82546L255.13807,207.82546L254.89806,207.82546L254.89806,207.58548L254.41802,207.58548
				L254.178,207.58548L253.93799,207.58548L253.93799,207.34549L253.69797,207.34549L253.45795,207.34549L253.21794,207.10551L252.97792,207.10551
				L252.49789,207.10551L252.25787,207.10551L252.01785,207.34549L251.77783,207.34549L251.53782,207.58548L251.2978,207.34549L
				251.05778,207.10551L251.05778,207.34549L250.81777,207.10551L250.57775,207.10551L250.33773,207.10551L250.09772,207.34549L
				249.13765,207.82546L248.89763,207.82546L248.65761,208.06544L247.93756,208.30543L247.93756,208.54541L247.45753,209.50534L
				247.21751,209.50534L245.53739,209.98531L245.53739,209.50534L245.53739,209.02538L245.53739,208.78539L244.33731,209.26536L
				241.21709,209.50534L240.97707,208.78539L240.73705,208.78539L240.73705,208.54541L240.49704,208.54541L240.25702,208.54541L
				240.017,208.54541L239.29695,208.78539L238.09687,208.54541L237.61683,208.78539L237.37681,208.30543L237.1368,208.30543L236.89678,208.06544
				L236.65676,208.30543L236.65676,206.38556L236.65676,205.42563L235.45668,204.4657L234.49661,203.50576L234.01658,203.0258L232.57647,204.70568
				L232.33646,204.94566L232.09644,205.18565L231.85642,204.94566L231.61641,204.22571L231.13637,203.50576L230.41632,203.50576
				L229.45625,206.14558L229.21624,207.58548L229.69627,211.66519L228.7362,212.14516L227.2961,213.34507L225.61598,214.06502L225.13595,214.30501
				L224.65591,214.54499L224.65591,214.78497L224.89593,215.02496L224.89593,215.26494L224.65591,215.26494L224.4159,215.26494L
				224.17588,215.26494L223.93586,215.50492L223.93586,215.74491L223.93586,215.98489L223.69585,215.98489L223.69585,216.22487L
				223.69585,217.66477L222.01573,218.14474L221.29568,217.66477L220.81564,220.30459L219.85557,221.02454L219.85557,221.74449L
				219.13552,222.70442L218.17545,222.46444L218.17545,222.70442L218.41547,223.90434L218.17545,223.90434L217.93544,223.66435L
				217.93544,223.42437L217.69542,223.42437L217.4554,223.42437L209.05481,225.8242L206.65464,226.06419L205.21454,226.78413L204.97452,226.78413
				L204.01445,227.2641L196.57392,227.74407L194.65379,227.98405L189.37341,227.98405L186.97324,227.2641L184.81309,226.54415L181.69287,225.34424
				L181.45285,225.58422L180.97282,225.8242L180.25277,226.06419L180.01275,226.06419L179.77273,226.06419L178.81267,226.06419L
				178.33263,226.54415L176.17248,227.50408L175.45243,227.50408L174.49236,227.50408L174.25234,227.2641L172.57222,227.50408L171.85217,227.74407
				L171.61216,227.74407L171.37214,227.74407L171.13212,227.50408L170.89211,227.50408L170.65209,227.50408L170.41207,227.50408
				L170.17205,227.50408L169.93204,227.74407L168.73195,227.50408L168.0119,227.2641L167.53187,226.78413L167.53187,226.30417L166.81182,226.54415
				L166.09177,226.30417L165.1317,225.8242L163.93161,225.34424L162.97154,224.86427L162.49151,224.3843L162.01148,224.14432L161.29143,223.66435
				L159.85132,223.18439L158.89126,223.42437L157.93119,223.18439L157.21114,222.70442L153.8509,221.26452L153.61088,221.26452L
				152.17078,221.02454L150.73068,221.02454L149.53059,220.78455L149.29058,220.78455L147.85047,221.26452L146.65039,220.54457L
				144.97027,220.54457L144.0102,220.54457L143.29015,220.78455L142.5701,220.78455L142.09007,220.78455L141.85005,220.78455L141.61003,220.78455
				L141.37001,220.78455L141.13,220.78455L140.88998,220.78455L140.64996,221.02454L140.40995,221.02454L140.16993,221.02454L139.92991,220.78455
				L139.20986,221.74449L138.96984,221.98447L138.96984,222.22445L138.96984,222.46444L138.72983,222.9444L138.48981,223.18439L
				138.96984,223.66435L138.72983,223.90434L138.72983,224.3843L138.00978,224.14432L137.76976,224.62429L138.00978,225.58422L137.04971,225.34424
				L136.32966,225.58422L135.84962,225.8242L134.88956,225.8242L134.64954,225.58422L134.64954,225.10425L134.1695,225.10425L133.20944,224.14432
				L133.20944,223.90434L132.24937,223.90434L131.76933,223.90434L131.52932,224.14432L130.32923,223.90434L130.08922,223.66435
				L129.60918,223.42437L129.36916,223.66435L129.36916,223.90434L129.36916,224.14432L129.12915,224.14432L129.12915,224.62429
				L128.16908,226.06419L127.92906,226.06419L127.20901,226.54415L125.28888,227.74407L125.04886,228.46402L125.04886,228.704L124.80884,228.94398
				L126.96899,229.42395L127.92906,229.18397L128.4091,228.94398L128.64911,228.94398L128.88913,228.46402L129.12915,228.46402L
				130.32923,228.46402L133.20944,230.62387L133.44945,231.10383L135.60961,231.5838L135.84962,231.82378L136.08964,232.06377L136.56967,232.54373
				L136.80969,232.78371L137.28973,233.0237L137.52974,233.0237L138.24979,233.50366L138.48981,233.26368L138.48981,232.78371L138.48981,231.82378
				L140.40995,232.30375L141.85005,231.5838L142.33008,231.5838L143.29015,231.34382L144.49024,231.5838L145.21029,232.06377L145.93034,232.06377
				L145.93034,232.30375L146.17035,232.06377L146.89041,232.54373L146.65039,233.50366L146.65039,233.74365L145.69032,233.74365
				L144.97027,233.74365L144.49024,233.50366L143.77018,233.50366L144.49024,234.70358L144.49024,234.94356L146.89041,235.66351
				L147.13042,235.66351L147.61046,235.9035L148.09049,236.62345L148.57052,235.9035L148.81054,235.9035L149.05056,236.86343L149.77061,238.7833
				L150.01063,240.22319L151.45073,241.90308L152.4108,242.62303L152.65081,243.34298L153.13085,243.58296L153.13085,243.82294L
				153.13085,244.06293L153.13085,244.30291L152.89083,244.30291L152.65081,244.30291L152.65081,244.54289L152.4108,244.54289L152.17078,244.54289
				L151.21071,245.26284L151.21071,245.74281L150.97069,246.46276L151.69075,248.14264L153.37086,249.10257L153.61088,249.34256
				L153.8509,249.34256L154.09092,249.58254L154.33093,249.58254L154.57095,249.58254L154.81097,249.34256L155.05098,249.34256L
				155.05098,249.10257L155.291,249.10257L155.291,248.62261L155.53102,248.62261L155.77103,248.86259L155.77103,249.10257L155.77103,249.34256
				L155.77103,249.58254L155.77103,249.82252L156.01105,250.30249L156.01105,250.54247L155.77103,250.78246L155.291,250.78246L153.8509,251.74239
				L153.8509,252.70232L154.09092,253.90224L154.09092,254.3822L153.61088,254.86217L152.17078,255.34214L151.93076,255.58212L151.69075,255.8221
				L151.45073,255.58212L151.21071,255.58212L151.21071,255.8221L150.97069,255.58212L150.49066,255.10215L150.25064,254.86217L
				150.25064,254.62219L150.01063,254.3822L149.77061,254.3822L149.77061,254.62219L148.81054,255.34214L147.37044,256.06209L145.21029,255.8221
				L144.73025,255.8221L143.05013,256.54205L140.64996,256.78204L140.16993,256.78204L139.6899,256.54205L139.44988,256.54205L138.72983,256.30207
				L138.24979,256.78204L137.52974,256.78204L137.04971,256.30207L136.80969,256.30207L136.56967,256.78204L136.08964,257.262L135.12957,257.50199
				L133.92949,257.50199L133.20944,257.74197L132.24937,258.22194L131.52932,258.22194L130.32923,258.22194L129.8492,257.50199L
				128.4091,257.02202L127.92906,256.78204L125.52889,255.58212L124.80884,255.34214L124.56882,255.10215L123.60876,254.62219L121.92864,253.66225
				L121.68862,253.42227L123.12872,249.58254L123.12872,249.10257L122.88871,249.10257L122.88871,248.86259L122.88871,248.38262
				L122.40867,247.90266L122.40867,247.42269L122.40867,246.94272L121.4486,246.22277L121.20859,245.74281L120.96857,245.74281L
				120.24852,244.54289L120.72855,244.30291L119.28845,239.50324L119.52847,238.30333L117.60833,238.54331L112.56797,240.46318L
				112.32796,240.46318L111.84792,241.18313L111.84792,242.38304L111.60791,242.62303L111.60791,243.10299L111.36789,243.34298L
				111.12787,243.58296L111.12787,244.30291L111.12787,244.54289L110.88786,245.02286L110.64784,245.26284L110.40782,245.50283L
				110.1678,245.74281L109.92779,246.46276L103.92736,249.82252L101.52719,247.66267L104.64741,244.54289L104.16738,243.10299L102.96729,241.42311
				L102.48726,238.7833L102.48726,238.54331L102.24724,238.54331L102.48726,238.30333L102.24724,238.30333L102.00723,238.06335L
				102.00723,237.82336L101.52719,237.10341L100.80714,237.82336L96.72685,240.46318L96.0068,239.50324L95.52677,239.50324L95.28675,239.26326
				L95.04673,239.50324L94.80672,239.50324L94.80672,239.74323L94.80672,239.98321L94.5667,239.98321L94.32668,239.98321L94.08667,239.98321
				L94.08667,240.22319L93.84665,240.22319L93.60663,240.22319L93.36661,240.22319L93.36661,239.98321L93.36661,239.74323L93.1266,239.50324
				L92.88658,239.26326L92.88658,239.02328L92.64656,238.7833L92.64656,238.54331L92.64656,238.30333L92.40655,238.06335L92.40655,237.82336
				L92.64656,237.82336L92.64656,237.58338L92.64656,237.3434L92.64656,237.10341L92.40655,237.10341L92.40655,236.86343L92.40655,236.62345
				L92.40655,236.38346L91.6865,234.70358L91.20646,232.54373L88.80629,232.30375L85.92609,232.06377L85.68607,232.30375L85.68607,232.54373
				L85.20604,232.54373L84.726,232.30375L84.48598,232.06377L84.24597,232.06377L84.24597,231.5838L84.00595,231.5838L82.32583,230.1439
				L80.4057,228.46402L79.20561,227.02412L79.44563,225.34424L78.24554,225.58422L77.28547,226.06419L77.04546,225.8242L77.04546,225.10425
				L77.28547,224.3843L77.76551,224.14432L78.24554,223.18439L78.72558,222.70442L79.20561,222.22445L79.44563,221.5045L79.68564,221.26452
				L75.84537,217.18481L75.12532,215.74491L74.8853,215.74491L74.8853,215.26494L74.40527,214.54499L74.16525,214.06502L74.40527,213.82504
				L77.28547,211.66519L77.52549,211.90518L77.76551,211.42521L77.76551,210.94524L77.76551,210.46528L77.76551,209.98531L77.52549,209.74533
				L77.28547,209.74533L77.52549,209.26536L77.28547,209.02538L77.28547,208.78539L77.04546,208.54541L76.80544,207.82546L76.32541,207.58548
				L75.84537,205.9056L75.84537,205.66561L75.60536,205.42563L75.36534,205.42563L75.12532,205.18565L75.12532,204.94566L75.36534,204.70568
				L75.36534,203.98573L76.32541,203.98573L76.32541,204.70568L76.08539,204.4657L76.08539,204.70568L76.08539,204.94566L76.08539,205.18565
				L76.08539,205.42563L78.96559,205.42563L79.68564,205.66561L79.68564,205.42563L79.44563,205.42563L79.68564,204.94566L79.92566,205.18565
				L79.92566,205.66561L80.4057,205.42563L80.4057,205.9056L80.88573,205.9056L80.88573,206.62554L81.12575,206.38556L81.12575,205.66561
				L81.8458,205.42563L81.60578,204.70568L81.36576,204.4657L81.36576,204.22571L81.12575,204.22571L80.88573,204.70568L79.92566,204.70568
				L80.16568,203.98573L80.16568,203.50576L79.92566,202.54583L79.20561,202.54583L79.44563,204.4657L78.96559,205.18565L78.24554,205.18565
				L78.00553,204.94566L77.76551,204.94566L78.00553,205.18565L77.52549,205.18565L77.52549,204.94566L77.28547,205.18565L76.80544,204.94566
				L76.56542,204.70568L76.80544,203.98573L76.56542,203.98573L76.08539,202.54583L77.76551,202.54583L77.76551,202.30585L78.24554,199.42605
				L78.24554,199.18607L78.00553,199.18607L77.76551,199.18607L77.76551,198.94608L77.76551,198.7061L77.52549,198.46612L77.28547,198.22613
				L77.28547,197.98615L77.28547,197.50618L77.28547,197.2662L77.28547,197.02622L77.28547,196.54625L77.52549,196.30627L77.52549,196.06628
				L77.28547,195.58632L77.04546,195.34633L77.04546,195.10635L76.80544,194.86637L76.80544,194.62638L76.56542,194.62638L76.56542,194.3864
				L76.32541,194.3864L76.08539,194.3864L75.84537,194.3864L75.84537,194.14642L75.60536,194.14642L77.28547,194.3864L78.48556,194.3864
				L78.96559,194.62638L79.92566,195.34633L79.92566,194.62638L79.44563,190.78665L79.44563,189.82672L80.16568,189.82672L80.64571,188.86679
				L81.12575,189.10677L81.36576,188.86679L81.60578,188.86679L82.32583,187.90685L82.32583,186.70694L82.08581,186.70694L82.08581,186.22697
				L82.08581,185.98699L82.08581,185.74701L82.56585,185.50702L82.80587,185.50702L83.2859,185.50702L83.2859,185.26704L83.52592,185.02706
				L83.52592,184.78707L83.2859,184.54709L83.2859,184.30711L84.00595,183.82714L84.00595,182.86721L83.76593,182.62722L86.88615,183.82714
				L88.80629,185.26704L91.44648,186.46696L93.1266,187.1869L93.36661,186.94692L93.60663,187.1869L93.84665,187.42689L93.84665,186.94692
				L93.84665,186.46696L93.84665,186.22697L94.08667,185.98699L94.32668,185.98699L94.32668,185.74701L94.32668,185.50702L94.08667,185.26704
				L94.08667,185.02706L94.32668,185.02706L94.32668,184.78707L94.32668,184.54709L94.32668,184.30711L94.32668,184.06712L94.08667,184.30711
				L94.08667,184.54709L94.08667,184.78707L93.84665,184.78707L93.84665,183.34717L94.08667,183.34717L94.08667,183.10719L94.08667,182.86721
				L93.84665,182.86721L94.08667,182.62722L94.08667,182.86721L94.32668,182.62722L94.08667,182.38724L94.08667,182.14726L93.84665,182.14726
				L93.84665,181.90727L94.08667,181.90727L94.32668,181.90727L94.08667,181.90727L93.84665,181.66729L94.5667,181.66729L94.5667,180.22739
				L95.04673,177.82756L95.04673,176.38766L95.04673,175.90769L94.80672,175.90769L93.36661,173.0279L93.60663,172.54793L92.88658,172.06796
				L92.16653,170.1481L91.6865,168.94818L90.24639,166.06838L88.56627,163.90853L87.84622,162.46863L87.60621,161.98867L85.92609,160.78875
				L83.52592,160.30879L84.00595,159.58884L84.24597,159.34885L84.24597,159.10887L84.00595,158.86889L84.00595,158.6289L84.24597,158.38892
				L84.24597,158.14894L84.48598,157.90895L84.24597,157.90895L84.24597,157.66897L84.24597,157.42899L84.00595,157.189L84.24597,156.94902
				L84.24597,156.70904L84.24597,156.46905L84.726,155.98909L84.48598,155.50912L84.24597,154.54919L84.96602,153.82924L85.20604,153.34927
				L84.00595,150.94944L84.24597,149.74952L84.48598,149.02957L82.80587,148.78959L80.64571,149.50954L80.64571,149.26956L80.64571,149.02957
				L80.88573,148.78959L81.12575,148.78959L81.12575,148.54961L81.36576,148.54961L81.36576,148.30962L81.36576,148.06964L81.60578,147.82966
				L81.60578,147.58968L81.36576,147.58968L81.36576,147.34969L81.60578,147.10971L81.60578,146.86973L81.8458,146.86973L81.8458,146.62974
				L81.8458,146.38976L82.08581,146.38976L81.8458,146.14978L81.8458,145.90979L81.8458,145.66981L81.8458,145.42983L81.8458,145.18984
				L81.8458,144.94986L81.8458,144.46989L81.8458,144.22991L81.8458,143.98993L81.8458,143.74994L81.8458,143.50996L82.08581,143.50996
				L82.08581,143.26998L81.8458,143.26998L82.08581,143.02999L81.8458,142.79001L81.8458,142.55003L81.8458,142.31004L81.60578,142.55003
				L81.60578,142.31004L81.36576,142.07006L81.36576,141.59009L81.12575,141.59009L81.36576,141.11013L81.12575,140.87015L81.12575,140.63016
				L81.12575,140.39018L81.36576,140.1502L81.60578,139.91021L81.60578,139.67023L81.60578,139.43025L81.60578,139.19026L81.60578,138.95028
				L87.12617,135.8305L82.56585,127.91105L81.36576,126.23117L80.4057,124.55129L78.72558,121.67149L74.40527,114.95196L74.16525,114.71198
				L73.68522,113.99203L74.40527,112.55213L80.64571,101.75288L80.88573,101.75288L81.12575,101.75288L81.12575,101.99287L81.36576,102.23285
				L81.36576,102.47283L81.12575,102.71281L81.36576,102.71281L81.36576,102.9528L81.60578,102.9528L84.24597,101.27292L84.00595,101.27292
				L84.00595,101.03293L84.00595,100.79295L86.1661,100.55297L87.36619,100.79295L87.60621,100.073L87.36619,99.11307L87.84622,98.6331
				L88.08624,98.39312L88.08624,98.15313L88.32626,98.15313L88.80629,97.91315L89.04631,98.6331L89.28632,98.87308L89.04631,99.11307
				L89.04631,99.35305L89.04631,99.59303L89.04631,99.83302L89.28632,99.83302L89.28632,100.073L89.28632,100.31298L89.28632,100.55297
				L89.52634,100.55297L89.52634,100.31298L89.76636,100.31298L90.00638,100.073L89.76636,100.073L89.76636,99.83302L90.00638,99.83302
				L90.00638,99.59303L90.00638,99.35305L90.24639,99.11307L90.48641,98.87308L90.72643,98.87308L91.20646,99.35305L92.16653,98.6331
				L92.16653,98.15313L93.1266,97.67317L92.40655,95.7533L91.92651,95.03335L94.5667,94.79337L94.32668,93.35347L95.04673,93.83344
				L96.48684,92.15355L97.20689,93.59345L97.4469,93.83344L97.4469,94.07342L97.68692,94.07342L97.92694,94.07342L97.92694,94.3134
				L98.16695,94.3134L99.60706,97.1932L99.84707,97.43318L99.84707,97.67317L100.08709,97.91315L100.32711,97.91315L100.32711,97.67317
				L100.32711,97.43318L100.56712,97.43318L100.80714,97.1932L101.28718,98.15313L101.28718,98.39312L101.28718,98.87308L101.28718,99.11307
				L101.28718,99.35305L101.28718,99.59303L101.52719,99.59303L101.76721,99.59303L102.00723,99.83302L102.00723,100.073L102.24724,100.31298
				L103.92736,99.59303L103.92736,99.35305L103.92736,99.11307L103.92736,98.87308L104.16738,98.87308L104.16738,98.6331L104.16738,98.39312
				L104.16738,98.15313L104.4074,97.1932L104.16738,97.1932L103.92736,97.1932L103.92736,96.95322L103.68735,96.95322L103.68735,96.71323
				L103.44733,96.47325L103.44733,96.23327L103.20731,96.23327L102.96729,96.23327L103.20731,94.79337L103.20731,94.55339L102.96729,93.83344
				L102.72728,93.11349L102.48726,92.63352L102.48726,92.15355L102.24724,91.91357L102.00723,91.91357L102.24724,91.67359L102.24724,91.4336
				L102.24724,91.19362L102.24724,90.95364L102.48726,90.71365L102.48726,90.47367L102.72728,90.47367L102.72728,90.23369L102.72728,89.75372
				L102.72728,89.51374L102.24724,89.51374L102.00723,89.27375L101.76721,89.03377L101.76721,88.79379L101.76721,88.55381L101.52719,88.31382
				L101.28718,88.31382L101.28718,87.83386L103.68735,87.11391L103.92736,87.11391L104.16738,87.35389L105.12745,86.87392L105.36746,86.63394
				L105.12745,86.39396L106.08752,85.91399L104.88743,83.03419L105.60748,82.79421L105.36746,82.31424L105.36746,82.07426L105.12745,81.83428
				L105.12745,81.59429L105.12745,81.11433L105.12745,80.87434L105.36746,80.87434L105.60748,80.87434L105.8475,80.87434L112.32796,79.19446
				L112.32796,79.43444L112.56797,79.43444L112.80799,79.67443L112.80799,79.43444L112.32796,78.47451L109.92779,75.35473L108.7277,74.63478
				L106.80757,73.19488L106.80757,72.47493L106.08752,71.75498L106.08752,71.27501L107.2876,69.35515L107.52762,68.6352L107.76763,68.39522
				L107.76763,68.15523L107.52762,67.91525L107.52762,67.67527L107.52762,67.43528L107.2876,67.1953L107.2876,66.95532L107.2876,66.71533
				L107.2876,66.47535L107.2876,66.23537L107.2876,65.99538L107.2876,65.7554L107.2876,65.51542L107.52762,64.79547L108.00765,64.3155
				L109.68777,65.7554L109.68777,66.95532L110.1678,66.71533L111.60791,68.6352L116.64826,65.99538L115.44818,64.3155L115.6882,64.07552
				L115.92821,64.07552L116.16823,63.59555L116.64826,62.15565L117.36831,61.91567L118.32838,60.95574L119.04843,60.71575L119.28845,60.47577
				L119.28845,60.23579L119.76848,59.51584L120.0085,60.71575L121.68862,62.63562L123.84877,63.83553L123.84877,64.07552L123.84877,64.55548
				L124.08879,64.55548L124.08879,64.79547L124.08879,65.03545L124.32881,65.03545L124.56882,65.27543L124.80884,65.99538L125.04886,65.99538
				L125.28888,65.7554L125.52889,65.51542L125.52889,65.27543L125.52889,65.03545L125.28888,65.03545L125.28888,64.79547L125.52889,64.79547
				L125.52889,64.55548L125.76891,64.55548L126.00893,64.3155L126.24894,64.3155L126.00893,64.07552L126.00893,63.83553L126.24894,63.59555
				L126.00893,63.59555L126.00893,63.35557L125.76891,63.35557L124.80884,61.19572L124.56882,60.95574L124.80884,60.71575L124.56882,60.71575
				L124.80884,60.47577L124.80884,60.23579L126.00893,59.03587L126.24894,59.75582L126.72898,60.47577L127.20901,60.71575L127.68905,61.19572
				L127.92906,61.91567L130.08922,61.91567L132.24937,61.67569L132.48939,61.4357L132.7294,60.47577L133.68947,59.27585L133.68947,59.03587
				L133.92949,59.03587L133.92949,59.27585L134.1695,59.27585L134.40952,59.51584L134.64954,59.51584L134.88956,59.75582L135.12957,59.75582
				L135.12957,59.51584L135.36959,59.51584L135.12957,59.27585L135.12957,59.03587L135.12957,58.79589L135.36959,58.79589L135.36959,58.5559
				L135.36959,58.31592L135.60961,58.07594L136.32966,57.83595L135.84962,56.87602L135.84962,56.63604L135.84962,56.39606L136.08964,56.63604
				L136.32966,56.87602L136.56967,57.116L136.80969,57.35599L137.04971,57.59597L137.28973,57.83595L137.52974,58.07594L137.52974,58.31592
				L139.44988,59.9958L139.92991,60.95574L139.6899,61.4357L139.92991,61.67569L139.6899,61.91567L139.92991,62.15565L140.16993,62.39564
				L140.16993,62.63562L140.40995,62.63562L140.40995,62.8756L140.16993,63.11558L139.92991,63.35557L139.6899,63.35557L139.6899,63.59555
				L141.61003,64.07552L141.13,61.91567L142.5701,60.47577L143.05013,61.19572L142.09007,62.39564L142.33008,63.11558L143.29015,62.8756
				L143.29015,62.39564L143.77018,60.95574L143.77018,60.47577L144.0102,60.47577L144.73025,60.47577L145.4503,60.47577L145.21029,60.95574
				L146.65039,62.8756L147.13042,62.63562L147.61046,63.11558L148.09049,62.8756L149.05056,59.51584L149.29058,59.51584L151.45073,57.83595
				L153.13085,57.83595L152.17078,56.15607L152.65081,56.15607L153.37086,56.15607L153.37086,55.91609L153.8509,55.43612L153.61088,54.95616
				L153.37086,55.19614L152.65081,54.71617L151.93076,53.99622L152.89083,53.03629L153.13085,52.79631L154.57095,55.19614L154.81097,56.63604
				L155.291,56.87602L156.25107,56.87602L156.7311,58.07594L158.1712,59.27585L158.65124,59.51584L159.13127,59.9958L159.85132,59.75582
				L159.85132,59.9958L159.85132,60.23579L160.09134,60.47577L160.09134,60.71575L160.09134,61.19572L160.33136,61.4357L160.33136,61.67569
				L161.29143,62.15565L161.77146,62.15565L164.65166,63.83553L165.61173,63.83553L166.09177,64.07552L166.09177,63.83553L166.33178,64.07552
				L167.05183,64.55548L167.53187,65.03545L168.49194,65.99538L169.69202,66.95532L169.93204,67.43528L171.61216,69.11517L171.85217,69.59513
				L171.85217,69.83511L172.09219,70.31508L172.33221,70.55506L172.57222,70.79505L172.57222,71.03503L172.81224,71.27501L172.81224,71.515
				L173.05226,71.75498L173.05226,71.99496L173.29228,72.23495L173.53229,72.47493L173.77231,72.71491L174.49236,73.19488L175.45243,73.67485
				L175.69245,74.63478L175.93246,75.8347L180.49279,76.79463L181.45285,77.99454L181.45285,78.23453L179.05268,80.87434L179.53272,83.51416
				L180.01275,83.27417L181.21284,84.23411L181.45285,83.99412L181.69287,84.23411L181.69287,84.47409L181.93289,84.71407L182.1729,84.71407
				L182.65294,85.19404L183.37299,86.15397L183.61301,86.39396L184.09304,86.87392L185.05311,87.83386L185.05311,88.55381L185.05311,88.79379
				L185.29313,88.79379L185.29313,89.03377L185.53314,89.03377L185.53314,89.27375L185.53314,89.51374L185.53314,89.75372L186.01318,90.23369
				L186.01318,89.9937L186.49321,90.23369L186.49321,90.47367L186.97324,89.51374L187.6933,89.03377L188.17333,89.03377L188.41335,89.27375
				L188.65336,89.51374L188.65336,89.75372L188.89338,89.75372L188.89338,89.9937L189.1334,89.9937L189.37341,90.23369L189.61343,90.23369
				L189.85345,90.23369L190.09347,89.9937L190.33348,89.9937L190.33348,89.75372L190.33348,89.51374L190.09347,89.51374L190.09347,89.27375
				L189.85345,89.03377L190.09347,88.31382L190.81352,88.79379L192.0136,89.75372L193.21369,91.67359L195.13382,93.35347L195.13382,93.11349
				L198.73408,95.03335L198.49406,95.7533L200.65421,96.71323L200.89423,96.23327L201.61428,95.03335L201.8543,95.27334L202.09432,95.27334
				L202.09432,95.51332L202.33433,95.51332L202.57435,95.7533L202.81437,95.99328L202.57435,96.71323L203.05438,96.71323L203.2944,96.23327
				L203.53442,96.23327L203.77443,96.23327L203.77443,96.47325L204.01445,96.47325L204.01445,96.95322L204.49449,96.95322L205.21454,97.43318
				L206.1746,97.67317L206.41462,96.95322L206.41462,97.1932L206.65464,97.1932L206.65464,96.95322L206.41462,96.95322L206.41462,96.71323
				L206.1746,96.71323L206.1746,96.47325L207.37469,97.67317L209.05481,97.67317L209.29483,96.95322L210.25489,97.1932L211.695,98.87308
				L212.41505,99.11307L212.89508,99.35305L213.37511,99.83302L214.81522,98.6331L215.53527,98.39312L216.0153,97.67317L216.0153,96.95322
				L216.25532,97.1932L216.25532,96.71323L217.69542,97.1932L218.41547,96.47325L218.65549,96.47325L219.61556,97.1932L219.37554,97.1932
				L219.85557,98.15313L220.33561,97.91315L224.65591,98.87308L228.7362,100.073L230.41632,100.79295L232.33646,100.79295L232.81649,100.55297
				L234.25659,103.19278L235.21666,102.47283L236.17673,102.9528L236.89678,105.11265L238.09687,105.59261L238.5769,105.8326L238.33688,106.55255
				L240.73705,109.43234L241.21709,109.19236L240.49704,107.03251L241.69712,107.03251L241.4571,105.35263L241.69712,105.11265L
				242.89721,105.59261L243.37724,105.35263L243.13722,104.87266L242.41717,104.3927L242.41717,103.19278L242.65719,103.19278L242.65719,102.9528
				L242.65719,102.71281L243.13722,101.99287L242.41717,101.5129L242.17715,101.5129L241.93714,101.5129L241.69712,101.27292L241.69712,100.79295
				L241.4571,100.55297L241.4571,99.11307L242.65719,100.073L243.37724,100.073L243.37724,99.11307L243.37724,98.87308L242.89721,95.7533
				L241.93714,94.55339L239.77698,92.8735L239.29695,91.4336L237.85685,90.47367L237.85685,89.03377L237.1368,88.79379L236.89678,88.55381
				L236.65676,88.55381L236.65676,88.31382L236.65676,88.07384L236.65676,87.83386L236.89678,87.59387L236.89678,87.35389L236.65676,87.11391
				L236.65676,86.87392L236.41675,86.87392L236.17673,86.87392L235.93671,86.87392L235.6967,86.87392L235.6967,87.11391L235.45668,86.87392
				L235.21666,86.87392L235.21666,86.63394L234.97664,86.63394L234.97664,86.39396L234.97664,86.15397L234.73663,85.91399L234.97664,85.91399
				L234.73663,85.67401L234.49661,85.67401L234.25659,85.67401L234.25659,85.43402L234.01658,85.43402L234.01658,85.19404L233.77656,85.19404
				L233.77656,84.95406L233.77656,84.71407L233.53654,84.71407L233.53654,84.47409L233.29653,84.47409L233.05651,84.47409L232.81649,84.47409
				L232.57647,84.47409L232.33646,84.23411L232.09644,84.23411L232.09644,83.99412L232.09644,83.75414L231.85642,83.51416L230.1763,83.27417
				L230.1763,83.51416L230.1763,83.75414L230.41632,83.75414L230.65634,83.99412L230.65634,84.23411L227.77613,83.51416L226.57605,81.83428
				L226.81607,81.59429L227.05608,81.35431L227.05608,81.11433L227.05608,80.87434L227.05608,80.63436L227.05608,80.39438L227.05608,80.15439
				L227.05608,79.67443L227.2961,79.43444L227.53612,79.19446L227.53612,78.95448L227.2961,78.95448L227.05608,78.71449L226.57605,78.47451
				L226.33603,78.23453L225.856,77.99454L225.37596,77.99454L224.89593,77.75456L224.65591,77.75456L224.4159,77.75456L224.17588,77.75456
				L223.93586,77.99454L223.69585,77.99454L223.21581,77.75456L222.49576,78.47451L220.57562,78.47451L219.61556,78.23453L219.13552,78.23453
				L219.37554,77.99454L219.61556,77.75456L219.61556,77.51458L219.37554,77.51458L219.37554,77.27459L219.37554,77.03461L219.37554,76.79463
				L219.37554,76.55464L219.37554,76.31466L219.37554,76.07468L219.61556,75.8347L219.85557,75.59471L219.85557,75.35473L219.85557,75.11475
				L220.09559,74.87476L219.85557,74.63478L219.85557,74.3948L219.61556,74.3948L219.61556,74.15481L219.61556,73.91483L218.89551,73.67485
				L218.17545,73.43486L217.69542,73.19488L216.97537,72.47493L216.97537,72.23495L217.21539,72.23495L216.97537,69.59513L215.29525,68.6352
				L215.29525,68.87518L214.33518,68.39522L214.33518,68.15523L214.09517,67.91525L214.33518,66.71533L216.97537,65.03545L217.69542,65.27543
				L217.93544,63.83553L217.4554,62.8756L217.21539,62.8756L217.21539,62.63562L216.49534,62.15565L216.25532,62.15565L216.0153,61.91567
				L216.73535,60.47577L216.73535,60.23579L216.97537,60.23579L217.21539,60.23579L217.21539,60.71575L217.4554,60.71575L217.69542,60.71575
				L217.93544,60.95574L218.17545,60.95574L218.41547,60.95574L218.89551,60.95574L219.13552,60.71575L219.37554,60.71575L219.61556,60.71575
				L219.61556,60.95574L219.85557,60.95574L220.09559,61.19572L220.33561,61.19572L220.57562,61.19572L220.57562,61.4357L220.81564,61.4357
				L221.53569,62.15565L221.77571,62.15565L222.01573,62.15565L222.49576,61.91567L222.73578,61.91567L222.97579,62.15565L223.21581,62.15565
				L223.45583,62.15565L223.69585,61.4357L223.69585,60.23579L223.93586,59.75582L224.17588,58.79589L223.69585,58.07594L223.93586,58.07594
				L222.97579,57.116L222.73578,57.116L222.73578,56.87602L222.49576,56.63604L222.49576,56.39606L222.49576,56.15607L222.25574,56.15607
				L222.25574,55.91609L222.49576,55.67611L222.49576,55.43612L222.49576,55.19614L222.73578,54.95616L222.97579,54.95616L223.21581,55.19614
				L223.69585,55.19614L223.93586,54.23621L223.93586,53.99622L223.93586,53.51626L224.17588,53.27627L224.4159,53.03629L224.4159,52.79631
				L224.4159,52.31634L224.65591,52.07636L224.4159,51.83637L224.4159,51.59639L224.65591,51.59639L224.89593,51.59639L224.89593,51.35641
				L224.89593,51.11642L224.65591,50.87644L224.4159,50.63646L224.4159,50.39647L224.17588,50.15649L224.17588,49.91651L224.4159,49.67653
				L224.4159,49.43654L224.65591,49.19656L224.4159,48.95658L224.4159,48.71659L224.17588,48.47661L224.17588,47.99664L224.17588,47.51668
				L224.4159,47.51668L224.65591,47.27669L224.65591,47.03671L224.89593,47.03671L224.89593,46.79673L225.13595,46.55674L225.13595,46.31676
				L225.13595,46.07678L224.89593,46.07678L224.89593,45.83679L224.65591,45.83679L224.65591,45.59681L224.4159,45.59681L224.4159,45.35683
				L224.4159,45.11684L224.65591,45.35683L224.89593,45.35683L225.13595,45.35683L225.37596,45.35683L225.61598,45.35683L225.856,45.35683
				L225.856,45.59681L226.09602,45.59681L226.33603,45.83679L226.57605,45.83679L226.57605,46.07678L227.2961,45.59681L227.53612,45.83679
				L227.77613,46.07678L228.01615,46.07678L228.25617,46.31676L228.49619,46.31676L228.7362,46.55674L228.97622,46.79673L229.45625,46.31676
				L229.69627,46.55674L230.89636,47.51668L231.13637,47.51668L231.61641,48.23663L232.09644,48.47661L232.33646,48.71659L232.57647,48.95658
				L234.25659,46.07678L233.77656,45.59681L233.77656,45.83679L233.05651,45.35683L232.81649,45.35683L232.33646,45.11684L232.09644,44.87686
				L231.85642,44.63688L231.61641,44.87686L230.89636,44.63688L228.7362,43.91693L229.45625,43.43696L230.1763,43.19698L230.89636,43.19698
				L231.85642,43.43696L232.81649,43.43696L233.53654,43.67694L234.01658,43.19698L234.97664,41.99706L235.21666,41.75708L236.41675,44.15691
				L237.85685,42.957L238.33688,42.957L239.05693,41.5171L239.53697,41.27711L239.77698,40.31718L239.29695,40.31718L238.33688,39.59723
				L237.85685,39.59723L239.05693,38.6373L240.25702,37.91735L240.25702,37.67736L240.25702,37.43738L240.49704,37.1974L240.73705,35.51752
				L240.73705,34.07762L241.4571,32.63772L242.89721,33.83763L243.61726,33.83763L250.81777,34.79757zM90.24639,231.5838L91.20646,232.54373
				L91.6865,232.06377L92.16653,231.82378L92.40655,231.5838L93.1266,230.86385L92.88658,230.1439L89.76636,228.22403L88.80629,228.704
				L88.56627,228.94398L88.80629,229.18397L89.04631,229.66393L89.04631,230.1439L89.52634,230.1439L89.76636,230.86385L90.00638,231.10383
				L89.76636,231.10383L90.24639,231.34382L90.24639,231.5838z"/>
			<path clip-path="url(#SVG_CP_1)" fill="none" stroke="#6E6E6E" stroke-width="0.48003" stroke-miterlimit="10" stroke-linecap="round" stroke-linejoin="round" d="
				M250.81777,34.79757L255.85812,40.79715L260.17843,43.19698L260.65846,43.43696L261.61853,43.91693L261.61853,45.59681L263.05863,46.55674
				L264.25872,48.47661L265.69882,49.19656L266.17885,49.91651L267.85897,50.63646L268.09899,50.87644L268.33901,52.31634L265.93884,53.03629
				L265.93884,53.27627L266.17885,53.27627L266.41887,53.27627L266.65889,53.27627L266.65889,53.51626L266.89891,53.51626L267.13892,53.51626
				L267.13892,53.75624L267.37894,53.75624L267.37894,53.99622L267.37894,53.75624L267.61896,53.75624L267.85897,53.75624L268.09899,53.75624
				L268.09899,53.99622L268.09899,54.23621L267.85897,54.23621L267.85897,54.47619L268.09899,54.47619L268.33901,54.47619L268.57902,54.47619
				L268.57902,54.23621L268.81904,54.47619L268.81904,54.71617L269.05906,54.47619L269.05906,54.71617L269.29908,54.71617L269.53909,54.71617
				L269.77911,54.95616L270.73918,55.91609L271.69925,56.39606L273.13935,55.91609L273.8594,56.87602L273.13935,58.07594L272.17928,62.39564
				L271.93926,63.11558L271.93926,63.35557L271.69925,66.47535L272.4193,66.95532L273.37937,67.43528L273.8594,68.39522L273.37937,68.87518
				L273.13935,69.11517L272.89933,69.35515L272.89933,69.59513L273.13935,69.83511L273.37937,70.0751L273.37937,70.31508L273.37937,70.55506
				L273.61938,70.55506L273.61938,70.79505L273.8594,70.79505L274.09942,70.79505L274.09942,71.03503L274.33943,71.03503L274.57945,71.27501
				L274.81947,71.515L275.05948,71.515L275.2995,71.515L277.93969,71.75498L277.93969,71.27501L277.45965,70.0751L277.45965,69.83511
				L277.69967,69.59513L277.69967,69.35515L277.93969,69.11517L278.17971,68.87518L278.17971,68.6352L278.41972,68.87518L278.41972,69.11517
				L278.65974,69.11517L278.89976,69.11517L279.13977,69.11517L279.37979,69.11517L279.61981,69.35515L279.85982,69.35515L280.09984,69.35515
				L280.33986,69.11517L280.57988,68.87518L280.57988,68.6352L280.81989,68.39522L280.81989,68.15523L281.05991,68.15523L281.05991,67.91525
				L281.53994,67.43528L282.25999,66.95532L284.66016,68.39522L286.82032,71.515L286.82032,71.99496L287.78039,79.19446L292.34071,87.83386
				L294.26084,91.4336L296.90103,93.59345L295.46093,98.6331L297.14105,105.11265L298.82117,111.59219L299.78124,115.67191L299.78124,116.39186
				L300.50129,117.11181L301.46135,120.23159L302.18141,120.95154L302.42142,120.95154L303.62151,122.8714L303.86152,122.63142L
				305.30163,123.11139L305.54164,123.11139L306.26169,123.35137L306.98175,123.35137L307.94181,123.83134L307.7018,124.55129L309.62193,126.23117
				L311.06203,128.39102L314.42227,131.5108L311.54207,137.75036L311.78209,141.11013L312.74215,141.83008L312.98217,142.55003L
				317.78251,148.06964L315.62236,149.50954L316.10239,150.46947L316.58243,150.94944L317.30248,152.14936L317.54249,153.10929L
				317.54249,153.82924L317.54249,154.54919L316.58243,159.10887L314.18226,163.66855L312.74215,164.62848L312.26212,164.86847L
				309.62193,167.50828L308.90188,169.66813L308.42185,174.46779L308.18183,174.94776L307.7018,175.42773L305.30163,176.86763L302.18141,177.82756
				L298.34113,180.22739L290.90061,189.10677L290.42057,189.82672L289.70052,191.98657L289.70052,192.22655L289.22049,193.66645
				L288.74045,194.86637L287.54037,194.86637L285.86025,194.62638L282.01998,196.06628L276.01955,197.98615L273.61938,198.94608
				L272.4193,198.94608L271.93926,198.94608L271.21921,198.7061L270.9792,198.7061L270.73918,198.7061L270.49916,198.7061L270.25914,198.7061
				L268.33901,198.7061L267.13892,198.22613L262.33858,200.38598L261.61853,199.90602L261.37851,200.146L260.89848,199.90602L259.21836,199.42605
				L258.49831,199.42605L258.25829,199.18607L258.01828,199.18607L257.77826,198.94608L257.53824,198.94608L257.29823,198.94608
				L257.05821,199.18607L257.53824,202.30585L257.05821,203.50576L257.29823,204.22571L257.05821,204.4657L256.81819,204.4657L256.57817,204.70568
				L256.33816,204.70568L255.61811,205.42563L255.61811,207.82546L255.37809,207.82546L255.13807,207.82546L254.89806,207.82546
				L254.89806,207.58548L254.41802,207.58548L254.178,207.58548L253.93799,207.58548L253.93799,207.34549L253.69797,207.34549L253.45795,207.34549
				L253.21794,207.10551L252.97792,207.10551L252.49789,207.10551L252.25787,207.10551L252.01785,207.34549L251.77783,207.34549
				L251.53782,207.58548L251.2978,207.34549L251.05778,207.10551L251.05778,207.34549L250.81777,207.10551L250.57775,207.10551L
				250.33773,207.10551L250.09772,207.34549L249.13765,207.82546L248.89763,207.82546L248.65761,208.06544L247.93756,208.30543L
				247.93756,208.54541L247.45753,209.50534L247.21751,209.50534L245.53739,209.98531L245.53739,209.50534L245.53739,209.02538L
				245.53739,208.78539L244.33731,209.26536L241.21709,209.50534L240.97707,208.78539L240.73705,208.78539L240.73705,208.54541L
				240.49704,208.54541L240.25702,208.54541L240.017,208.54541L239.29695,208.78539L238.09687,208.54541L237.61683,208.78539L237.37681,208.30543
				L237.1368,208.30543L236.89678,208.06544L236.65676,208.30543L236.65676,206.38556L236.65676,205.42563L235.45668,204.4657L234.49661,203.50576
				L234.01658,203.0258L232.57647,204.70568L232.33646,204.94566L232.09644,205.18565L231.85642,204.94566L231.61641,204.22571L
				231.13637,203.50576L230.41632,203.50576L229.45625,206.14558L229.21624,207.58548L229.69627,211.66519L228.7362,212.14516L227.2961,213.34507
				L225.61598,214.06502L225.13595,214.30501L224.65591,214.54499L224.65591,214.78497L224.89593,215.02496L224.89593,215.26494
				L224.65591,215.26494L224.4159,215.26494L224.17588,215.26494L223.93586,215.50492L223.93586,215.74491L223.93586,215.98489L
				223.69585,215.98489L223.69585,216.22487L223.69585,217.66477L222.01573,218.14474L221.29568,217.66477L220.81564,220.30459L
				219.85557,221.02454L219.85557,221.74449L219.13552,222.70442L218.17545,222.46444L218.17545,222.70442L218.41547,223.90434L
				218.17545,223.90434L217.93544,223.66435L217.93544,223.42437L217.69542,223.42437L217.4554,223.42437L209.05481,225.8242L206.65464,226.06419
				L205.21454,226.78413L204.97452,226.78413L204.01445,227.2641L196.57392,227.74407L194.65379,227.98405L189.37341,227.98405L
				186.97324,227.2641L184.81309,226.54415L181.69287,225.34424L181.45285,225.58422L180.97282,225.8242L180.25277,226.06419L180.01275,226.06419
				L179.77273,226.06419L178.81267,226.06419L178.33263,226.54415L176.17248,227.50408L175.45243,227.50408L174.49236,227.50408
				L174.25234,227.2641L172.57222,227.50408L171.85217,227.74407L171.61216,227.74407L171.37214,227.74407L171.13212,227.50408L
				170.89211,227.50408L170.65209,227.50408L170.41207,227.50408L170.17205,227.50408L169.93204,227.74407L168.73195,227.50408L
				168.0119,227.2641L167.53187,226.78413L167.53187,226.30417L166.81182,226.54415L166.09177,226.30417L165.1317,225.8242L163.93161,225.34424
				L162.97154,224.86427L162.49151,224.3843L162.01148,224.14432L161.29143,223.66435L159.85132,223.18439L158.89126,223.42437L
				157.93119,223.18439L157.21114,222.70442L153.8509,221.26452L153.61088,221.26452L152.17078,221.02454L150.73068,221.02454L149.53059,220.78455
				L149.29058,220.78455L147.85047,221.26452L146.65039,220.54457L144.97027,220.54457L144.0102,220.54457L143.29015,220.78455L
				142.5701,220.78455L142.09007,220.78455L141.85005,220.78455L141.61003,220.78455L141.37001,220.78455L141.13,220.78455L140.88998,220.78455
				L140.64996,221.02454L140.40995,221.02454L140.16993,221.02454L139.92991,220.78455L139.20986,221.74449L138.96984,221.98447
				L138.96984,222.22445L138.96984,222.46444L138.72983,222.9444L138.48981,223.18439L138.96984,223.66435L138.72983,223.90434L
				138.72983,224.3843L138.00978,224.14432L137.76976,224.62429L138.00978,225.58422L137.04971,225.34424L136.32966,225.58422L135.84962,225.8242
				L134.88956,225.8242L134.64954,225.58422L134.64954,225.10425L134.1695,225.10425L133.20944,224.14432L133.20944,223.90434L132.24937,223.90434
				L131.76933,223.90434L131.52932,224.14432L130.32923,223.90434L130.08922,223.66435L129.60918,223.42437L129.36916,223.66435
				L129.36916,223.90434L129.36916,224.14432L129.12915,224.14432L129.12915,224.62429L128.16908,226.06419L127.92906,226.06419
				L127.20901,226.54415L125.28888,227.74407L125.04886,228.46402L125.04886,228.704L124.80884,228.94398L126.96899,229.42395L127.92906,229.18397
				L128.4091,228.94398L128.64911,228.94398L128.88913,228.46402L129.12915,228.46402L130.32923,228.46402L133.20944,230.62387L
				133.44945,231.10383L135.60961,231.5838L135.84962,231.82378L136.08964,232.06377L136.56967,232.54373L136.80969,232.78371L137.28973,233.0237
				L137.52974,233.0237L138.24979,233.50366L138.48981,233.26368L138.48981,232.78371L138.48981,231.82378L140.40995,232.30375L
				141.85005,231.5838L142.33008,231.5838L143.29015,231.34382L144.49024,231.5838L145.21029,232.06377L145.93034,232.06377L145.93034,232.30375
				L146.17035,232.06377L146.89041,232.54373L146.65039,233.50366L146.65039,233.74365L145.69032,233.74365L144.97027,233.74365
				L144.49024,233.50366L143.77018,233.50366L144.49024,234.70358L144.49024,234.94356L146.89041,235.66351L147.13042,235.66351
				L147.61046,235.9035L148.09049,236.62345L148.57052,235.9035L148.81054,235.9035L149.05056,236.86343L149.77061,238.7833L150.01063,240.22319
				L151.45073,241.90308L152.4108,242.62303L152.65081,243.34298L153.13085,243.58296L153.13085,243.82294L153.13085,244.06293L
				153.13085,244.30291L152.89083,244.30291L152.65081,244.30291L152.65081,244.54289L152.4108,244.54289L152.17078,244.54289L151.21071,245.26284
				L151.21071,245.74281L150.97069,246.46276L151.69075,248.14264L153.37086,249.10257L153.61088,249.34256L153.8509,249.34256L
				154.09092,249.58254L154.33093,249.58254L154.57095,249.58254L154.81097,249.34256L155.05098,249.34256L155.05098,249.10257L
				155.291,249.10257L155.291,248.62261L155.53102,248.62261L155.77103,248.86259L155.77103,249.10257L155.77103,249.34256L155.77103,249.58254
				L155.77103,249.82252L156.01105,250.30249L156.01105,250.54247L155.77103,250.78246L155.291,250.78246L153.8509,251.74239L153.8509,252.70232
				L154.09092,253.90224L154.09092,254.3822L153.61088,254.86217L152.17078,255.34214L151.93076,255.58212L151.69075,255.8221L151.45073,255.58212
				L151.21071,255.58212L151.21071,255.8221L150.97069,255.58212L150.49066,255.10215L150.25064,254.86217L150.25064,254.62219L
				150.01063,254.3822L149.77061,254.3822L149.77061,254.62219L148.81054,255.34214L147.37044,256.06209L145.21029,255.8221L144.73025,255.8221
				L143.05013,256.54205L140.64996,256.78204L140.16993,256.78204L139.6899,256.54205L139.44988,256.54205L138.72983,256.30207L
				138.24979,256.78204L137.52974,256.78204L137.04971,256.30207L136.80969,256.30207L136.56967,256.78204L136.08964,257.262L135.12957,257.50199
				L133.92949,257.50199L133.20944,257.74197L132.24937,258.22194L131.52932,258.22194L130.32923,258.22194L129.8492,257.50199L
				128.4091,257.02202L127.92906,256.78204L125.52889,255.58212L124.80884,255.34214L124.56882,255.10215L123.60876,254.62219L121.92864,253.66225
				L121.68862,253.42227L123.12872,249.58254L123.12872,249.10257L122.88871,249.10257L122.88871,248.86259L122.88871,248.38262
				L122.40867,247.90266L122.40867,247.42269L122.40867,246.94272L121.4486,246.22277L121.20859,245.74281L120.96857,245.74281L
				120.24852,244.54289L120.72855,244.30291L119.28845,239.50324L119.52847,238.30333L117.60833,238.54331L112.56797,240.46318L
				112.32796,240.46318L111.84792,241.18313L111.84792,242.38304L111.60791,242.62303L111.60791,243.10299L111.36789,243.34298L
				111.12787,243.58296L111.12787,244.30291L111.12787,244.54289L110.88786,245.02286L110.64784,245.26284L110.40782,245.50283L
				110.1678,245.74281L109.92779,246.46276L103.92736,249.82252L101.52719,247.66267L104.64741,244.54289L104.16738,243.10299L102.96729,241.42311
				L102.48726,238.7833L102.48726,238.54331L102.24724,238.54331L102.48726,238.30333L102.24724,238.30333L102.00723,238.06335L
				102.00723,237.82336L101.52719,237.10341L100.80714,237.82336L96.72685,240.46318L96.0068,239.50324L95.52677,239.50324L95.28675,239.26326
				L95.04673,239.50324L94.80672,239.50324L94.80672,239.74323L94.80672,239.98321L94.5667,239.98321L94.32668,239.98321L94.08667,239.98321
				L94.08667,240.22319L93.84665,240.22319L93.60663,240.22319L93.36661,240.22319L93.36661,239.98321L93.36661,239.74323L93.1266,239.50324
				L92.88658,239.26326L92.88658,239.02328L92.64656,238.7833L92.64656,238.54331L92.64656,238.30333L92.40655,238.06335L92.40655,237.82336
				L92.64656,237.82336L92.64656,237.58338L92.64656,237.3434L92.64656,237.10341L92.40655,237.10341L92.40655,236.86343L92.40655,236.62345
				L92.40655,236.38346L91.6865,234.70358L91.20646,232.54373L88.80629,232.30375L85.92609,232.06377L85.68607,232.30375L85.68607,232.54373
				L85.20604,232.54373L84.726,232.30375L84.48598,232.06377L84.24597,232.06377L84.24597,231.5838L84.00595,231.5838L82.32583,230.1439
				L80.4057,228.46402L79.20561,227.02412L79.44563,225.34424L78.24554,225.58422L77.28547,226.06419L77.04546,225.8242L77.04546,225.10425
				L77.28547,224.3843L77.76551,224.14432L78.24554,223.18439L78.72558,222.70442L79.20561,222.22445L79.44563,221.5045L79.68564,221.26452
				L75.84537,217.18481L75.12532,215.74491L74.8853,215.74491L74.8853,215.26494L74.40527,214.54499L74.16525,214.06502L74.40527,213.82504
				L77.28547,211.66519L77.52549,211.90518L77.76551,211.42521L77.76551,210.94524L77.76551,210.46528L77.76551,209.98531L77.52549,209.74533
				L77.28547,209.74533L77.52549,209.26536L77.28547,209.02538L77.28547,208.78539L77.04546,208.54541L76.80544,207.82546L76.32541,207.58548
				L75.84537,205.9056L75.84537,205.66561L75.60536,205.42563L75.36534,205.42563L75.12532,205.18565L75.12532,204.94566L75.36534,204.70568
				L75.36534,203.98573L76.32541,203.98573L76.32541,204.70568L76.08539,204.4657L76.08539,204.70568L76.08539,204.94566L76.08539,205.18565
				L76.08539,205.42563L78.96559,205.42563L79.68564,205.66561L79.68564,205.42563L79.44563,205.42563L79.68564,204.94566L79.92566,205.18565
				L79.92566,205.66561L80.4057,205.42563L80.4057,205.9056L80.88573,205.9056L80.88573,206.62554L81.12575,206.38556L81.12575,205.66561
				L81.8458,205.42563L81.60578,204.70568L81.36576,204.4657L81.36576,204.22571L81.12575,204.22571L80.88573,204.70568L79.92566,204.70568
				L80.16568,203.98573L80.16568,203.50576L79.92566,202.54583L79.20561,202.54583L79.44563,204.4657L78.96559,205.18565L78.24554,205.18565
				L78.00553,204.94566L77.76551,204.94566L78.00553,205.18565L77.52549,205.18565L77.52549,204.94566L77.28547,205.18565L76.80544,204.94566
				L76.56542,204.70568L76.80544,203.98573L76.56542,203.98573L76.08539,202.54583L77.76551,202.54583L77.76551,202.30585L78.24554,199.42605
				L78.24554,199.18607L78.00553,199.18607L77.76551,199.18607L77.76551,198.94608L77.76551,198.7061L77.52549,198.46612L77.28547,198.22613
				L77.28547,197.98615L77.28547,197.50618L77.28547,197.2662L77.28547,197.02622L77.28547,196.54625L77.52549,196.30627L77.52549,196.06628
				L77.28547,195.58632L77.04546,195.34633L77.04546,195.10635L76.80544,194.86637L76.80544,194.62638L76.56542,194.62638L76.56542,194.3864
				L76.32541,194.3864L76.08539,194.3864L75.84537,194.3864L75.84537,194.14642L75.60536,194.14642L77.28547,194.3864L78.48556,194.3864
				L78.96559,194.62638L79.92566,195.34633L79.92566,194.62638L79.44563,190.78665L79.44563,189.82672L80.16568,189.82672L80.64571,188.86679
				L81.12575,189.10677L81.36576,188.86679L81.60578,188.86679L82.32583,187.90685L82.32583,186.70694L82.08581,186.70694L82.08581,186.22697
				L82.08581,185.98699L82.08581,185.74701L82.56585,185.50702L82.80587,185.50702L83.2859,185.50702L83.2859,185.26704L83.52592,185.02706
				L83.52592,184.78707L83.2859,184.54709L83.2859,184.30711L84.00595,183.82714L84.00595,182.86721L83.76593,182.62722L86.88615,183.82714
				L88.80629,185.26704L91.44648,186.46696L93.1266,187.1869L93.36661,186.94692L93.60663,187.1869L93.84665,187.42689L93.84665,186.94692
				L93.84665,186.46696L93.84665,186.22697L94.08667,185.98699L94.32668,185.98699L94.32668,185.74701L94.32668,185.50702L94.08667,185.26704
				L94.08667,185.02706L94.32668,185.02706L94.32668,184.78707L94.32668,184.54709L94.32668,184.30711L94.32668,184.06712L94.08667,184.30711
				L94.08667,184.54709L94.08667,184.78707L93.84665,184.78707L93.84665,183.34717L94.08667,183.34717L94.08667,183.10719L94.08667,182.86721
				L93.84665,182.86721L94.08667,182.62722L94.08667,182.86721L94.32668,182.62722L94.08667,182.38724L94.08667,182.14726L93.84665,182.14726
				L93.84665,181.90727L94.08667,181.90727L94.32668,181.90727L94.08667,181.90727L93.84665,181.66729L94.5667,181.66729L94.5667,180.22739
				L95.04673,177.82756L95.04673,176.38766L95.04673,175.90769L94.80672,175.90769L93.36661,173.0279L93.60663,172.54793L92.88658,172.06796
				L92.16653,170.1481L91.6865,168.94818L90.24639,166.06838L88.56627,163.90853L87.84622,162.46863L87.60621,161.98867L85.92609,160.78875
				L83.52592,160.30879L84.00595,159.58884L84.24597,159.34885L84.24597,159.10887L84.00595,158.86889L84.00595,158.6289L84.24597,158.38892
				L84.24597,158.14894L84.48598,157.90895L84.24597,157.90895L84.24597,157.66897L84.24597,157.42899L84.00595,157.189L84.24597,156.94902
				L84.24597,156.70904L84.24597,156.46905L84.726,155.98909L84.48598,155.50912L84.24597,154.54919L84.96602,153.82924L85.20604,153.34927
				L84.00595,150.94944L84.24597,149.74952L84.48598,149.02957L82.80587,148.78959L80.64571,149.50954L80.64571,149.26956L80.64571,149.02957
				L80.88573,148.78959L81.12575,148.78959L81.12575,148.54961L81.36576,148.54961L81.36576,148.30962L81.36576,148.06964L81.60578,147.82966
				L81.60578,147.58968L81.36576,147.58968L81.36576,147.34969L81.60578,147.10971L81.60578,146.86973L81.8458,146.86973L81.8458,146.62974
				L81.8458,146.38976L82.08581,146.38976L81.8458,146.14978L81.8458,145.90979L81.8458,145.66981L81.8458,145.42983L81.8458,145.18984
				L81.8458,144.94986L81.8458,144.46989L81.8458,144.22991L81.8458,143.98993L81.8458,143.74994L81.8458,143.50996L82.08581,143.50996
				L82.08581,143.26998L81.8458,143.26998L82.08581,143.02999L81.8458,142.79001L81.8458,142.55003L81.8458,142.31004L81.60578,142.55003
				L81.60578,142.31004L81.36576,142.07006L81.36576,141.59009L81.12575,141.59009L81.36576,141.11013L81.12575,140.87015L81.12575,140.63016
				L81.12575,140.39018L81.36576,140.1502L81.60578,139.91021L81.60578,139.67023L81.60578,139.43025L81.60578,139.19026L81.60578,138.95028
				L87.12617,135.8305L82.56585,127.91105L81.36576,126.23117L80.4057,124.55129L78.72558,121.67149L74.40527,114.95196L74.16525,114.71198
				L73.68522,113.99203L74.40527,112.55213L80.64571,101.75288L80.88573,101.75288L81.12575,101.75288L81.12575,101.99287L81.36576,102.23285
				L81.36576,102.47283L81.12575,102.71281L81.36576,102.71281L81.36576,102.9528L81.60578,102.9528L84.24597,101.27292L84.00595,101.27292
				L84.00595,101.03293L84.00595,100.79295L86.1661,100.55297L87.36619,100.79295L87.60621,100.073L87.36619,99.11307L87.84622,98.6331
				L88.08624,98.39312L88.08624,98.15313L88.32626,98.15313L88.80629,97.91315L89.04631,98.6331L89.28632,98.87308L89.04631,99.11307
				L89.04631,99.35305L89.04631,99.59303L89.04631,99.83302L89.28632,99.83302L89.28632,100.073L89.28632,100.31298L89.28632,100.55297
				L89.52634,100.55297L89.52634,100.31298L89.76636,100.31298L90.00638,100.073L89.76636,100.073L89.76636,99.83302L90.00638,99.83302
				L90.00638,99.59303L90.00638,99.35305L90.24639,99.11307L90.48641,98.87308L90.72643,98.87308L91.20646,99.35305L92.16653,98.6331
				L92.16653,98.15313L93.1266,97.67317L92.40655,95.7533L91.92651,95.03335L94.5667,94.79337L94.32668,93.35347L95.04673,93.83344
				L96.48684,92.15355L97.20689,93.59345L97.4469,93.83344L97.4469,94.07342L97.68692,94.07342L97.92694,94.07342L97.92694,94.3134
				L98.16695,94.3134L99.60706,97.1932L99.84707,97.43318L99.84707,97.67317L100.08709,97.91315L100.32711,97.91315L100.32711,97.67317
				L100.32711,97.43318L100.56712,97.43318L100.80714,97.1932L101.28718,98.15313L101.28718,98.39312L101.28718,98.87308L101.28718,99.11307
				L101.28718,99.35305L101.28718,99.59303L101.52719,99.59303L101.76721,99.59303L102.00723,99.83302L102.00723,100.073L102.24724,100.31298
				L103.92736,99.59303L103.92736,99.35305L103.92736,99.11307L103.92736,98.87308L104.16738,98.87308L104.16738,98.6331L104.16738,98.39312
				L104.16738,98.15313L104.4074,97.1932L104.16738,97.1932L103.92736,97.1932L103.92736,96.95322L103.68735,96.95322L103.68735,96.71323
				L103.44733,96.47325L103.44733,96.23327L103.20731,96.23327L102.96729,96.23327L103.20731,94.79337L103.20731,94.55339L102.96729,93.83344
				L102.72728,93.11349L102.48726,92.63352L102.48726,92.15355L102.24724,91.91357L102.00723,91.91357L102.24724,91.67359L102.24724,91.4336
				L102.24724,91.19362L102.24724,90.95364L102.48726,90.71365L102.48726,90.47367"/>
			<path clip-path="url(#SVG_CP_1)" fill="none" stroke="#6E6E6E" stroke-width="0.48003" stroke-miterlimit="10" stroke-linecap="round" stroke-linejoin="round" d="
				M102.48726,90.47367L102.72728,90.47367L102.72728,90.23369L102.72728,89.75372L102.72728,89.51374L102.24724,89.51374L102.00723,89.27375
				L101.76721,89.03377L101.76721,88.79379L101.76721,88.55381L101.52719,88.31382L101.28718,88.31382L101.28718,87.83386L103.68735,87.11391
				L103.92736,87.11391L104.16738,87.35389L105.12745,86.87392L105.36746,86.63394L105.12745,86.39396L106.08752,85.91399L104.88743,83.03419
				L105.60748,82.79421L105.36746,82.31424L105.36746,82.07426L105.12745,81.83428L105.12745,81.59429L105.12745,81.11433L105.12745,80.87434
				L105.36746,80.87434L105.60748,80.87434L105.8475,80.87434L112.32796,79.19446L112.32796,79.43444L112.56797,79.43444L112.80799,79.67443
				L112.80799,79.43444L112.32796,78.47451L109.92779,75.35473L108.7277,74.63478L106.80757,73.19488L106.80757,72.47493L106.08752,71.75498
				L106.08752,71.27501L107.2876,69.35515L107.52762,68.6352L107.76763,68.39522L107.76763,68.15523L107.52762,67.91525L107.52762,67.67527
				L107.52762,67.43528L107.2876,67.1953L107.2876,66.95532L107.2876,66.71533L107.2876,66.47535L107.2876,66.23537L107.2876,65.99538
				L107.2876,65.7554L107.2876,65.51542L107.52762,64.79547L108.00765,64.3155L109.68777,65.7554L109.68777,66.95532L110.1678,66.71533
				L111.60791,68.6352L116.64826,65.99538L115.44818,64.3155L115.6882,64.07552L115.92821,64.07552L116.16823,63.59555L116.64826,62.15565
				L117.36831,61.91567L118.32838,60.95574L119.04843,60.71575L119.28845,60.47577L119.28845,60.23579L119.76848,59.51584L120.0085,60.71575
				L121.68862,62.63562L123.84877,63.83553L123.84877,64.07552L123.84877,64.55548L124.08879,64.55548L124.08879,64.79547L124.08879,65.03545
				L124.32881,65.03545L124.56882,65.27543L124.80884,65.99538L125.04886,65.99538L125.28888,65.7554L125.52889,65.51542L125.52889,65.27543
				L125.52889,65.03545L125.28888,65.03545L125.28888,64.79547L125.52889,64.79547L125.52889,64.55548L125.76891,64.55548L126.00893,64.3155
				L126.24894,64.3155L126.00893,64.07552L126.00893,63.83553L126.24894,63.59555L126.00893,63.59555L126.00893,63.35557L125.76891,63.35557
				L124.80884,61.19572L124.56882,60.95574L124.80884,60.71575L124.56882,60.71575L124.80884,60.47577L124.80884,60.23579L126.00893,59.03587
				L126.24894,59.75582L126.72898,60.47577L127.20901,60.71575L127.68905,61.19572L127.92906,61.91567L130.08922,61.91567L132.24937,61.67569
				L132.48939,61.4357L132.7294,60.47577L133.68947,59.27585L133.68947,59.03587L133.92949,59.03587L133.92949,59.27585L134.1695,59.27585
				L134.40952,59.51584L134.64954,59.51584L134.88956,59.75582L135.12957,59.75582L135.12957,59.51584L135.36959,59.51584L135.12957,59.27585
				L135.12957,59.03587L135.12957,58.79589L135.36959,58.79589L135.36959,58.5559L135.36959,58.31592L135.60961,58.07594L136.32966,57.83595
				L135.84962,56.87602L135.84962,56.63604L135.84962,56.39606L136.08964,56.63604L136.32966,56.87602L136.56967,57.116L136.80969,57.35599
				L137.04971,57.59597L137.28973,57.83595L137.52974,58.07594L137.52974,58.31592L139.44988,59.9958L139.92991,60.95574L139.6899,61.4357
				L139.92991,61.67569L139.6899,61.91567L139.92991,62.15565L140.16993,62.39564L140.16993,62.63562L140.40995,62.63562L140.40995,62.8756
				L140.16993,63.11558L139.92991,63.35557L139.6899,63.35557L139.6899,63.59555L141.61003,64.07552L141.13,61.91567L142.5701,60.47577
				L143.05013,61.19572L142.09007,62.39564L142.33008,63.11558L143.29015,62.8756L143.29015,62.39564L143.77018,60.95574L143.77018,60.47577
				L144.0102,60.47577L144.73025,60.47577L145.4503,60.47577L145.21029,60.95574L146.65039,62.8756L147.13042,62.63562L147.61046,63.11558
				L148.09049,62.8756L149.05056,59.51584L149.29058,59.51584L151.45073,57.83595L153.13085,57.83595L152.17078,56.15607L152.65081,56.15607
				L153.37086,56.15607L153.37086,55.91609L153.8509,55.43612L153.61088,54.95616L153.37086,55.19614L152.65081,54.71617L151.93076,53.99622
				L152.89083,53.03629L153.13085,52.79631L154.57095,55.19614L154.81097,56.63604L155.291,56.87602L156.25107,56.87602L156.7311,58.07594
				L158.1712,59.27585L158.65124,59.51584L159.13127,59.9958L159.85132,59.75582L159.85132,59.9958L159.85132,60.23579L160.09134,60.47577
				L160.09134,60.71575L160.09134,61.19572L160.33136,61.4357L160.33136,61.67569L161.29143,62.15565L161.77146,62.15565L164.65166,63.83553
				L165.61173,63.83553L166.09177,64.07552L166.09177,63.83553L166.33178,64.07552L167.05183,64.55548L167.53187,65.03545L168.49194,65.99538
				L169.69202,66.95532L169.93204,67.43528L171.61216,69.11517L171.85217,69.59513L171.85217,69.83511L172.09219,70.31508L172.33221,70.55506
				L172.57222,70.79505L172.57222,71.03503L172.81224,71.27501L172.81224,71.515L173.05226,71.75498L173.05226,71.99496L173.29228,72.23495
				L173.53229,72.47493L173.77231,72.71491L174.49236,73.19488L175.45243,73.67485L175.69245,74.63478L175.93246,75.8347L180.49279,76.79463
				L181.45285,77.99454L181.45285,78.23453L179.05268,80.87434L179.53272,83.51416L180.01275,83.27417L181.21284,84.23411L181.45285,83.99412
				L181.69287,84.23411L181.69287,84.47409L181.93289,84.71407L182.1729,84.71407L182.65294,85.19404L183.37299,86.15397L183.61301,86.39396
				L184.09304,86.87392L185.05311,87.83386L185.05311,88.55381L185.05311,88.79379L185.29313,88.79379L185.29313,89.03377L185.53314,89.03377
				L185.53314,89.27375L185.53314,89.51374L185.53314,89.75372L186.01318,90.23369L186.01318,89.9937L186.49321,90.23369L186.49321,90.47367
				L186.97324,89.51374L187.6933,89.03377L188.17333,89.03377L188.41335,89.27375L188.65336,89.51374L188.65336,89.75372L188.89338,89.75372
				L188.89338,89.9937L189.1334,89.9937L189.37341,90.23369L189.61343,90.23369L189.85345,90.23369L190.09347,89.9937L190.33348,89.9937
				L190.33348,89.75372L190.33348,89.51374L190.09347,89.51374L190.09347,89.27375L189.85345,89.03377L190.09347,88.31382L190.81352,88.79379
				L192.0136,89.75372L193.21369,91.67359L195.13382,93.35347L195.13382,93.11349L198.73408,95.03335L198.49406,95.7533L200.65421,96.71323
				L200.89423,96.23327L201.61428,95.03335L201.8543,95.27334L202.09432,95.27334L202.09432,95.51332L202.33433,95.51332L202.57435,95.7533
				L202.81437,95.99328L202.57435,96.71323L203.05438,96.71323L203.2944,96.23327L203.53442,96.23327L203.77443,96.23327L203.77443,96.47325
				L204.01445,96.47325L204.01445,96.95322L204.49449,96.95322L205.21454,97.43318L206.1746,97.67317L206.41462,96.95322L206.41462,97.1932
				L206.65464,97.1932L206.65464,96.95322L206.41462,96.95322L206.41462,96.71323L206.1746,96.71323L206.1746,96.47325L207.37469,97.67317
				L209.05481,97.67317L209.29483,96.95322L210.25489,97.1932L211.695,98.87308L212.41505,99.11307L212.89508,99.35305L213.37511,99.83302
				L214.81522,98.6331L215.53527,98.39312L216.0153,97.67317L216.0153,96.95322L216.25532,97.1932L216.25532,96.71323L217.69542,97.1932
				L218.41547,96.47325L218.65549,96.47325L219.61556,97.1932L219.37554,97.1932L219.85557,98.15313L220.33561,97.91315L224.65591,98.87308
				L228.7362,100.073L230.41632,100.79295L232.33646,100.79295L232.81649,100.55297L234.25659,103.19278L235.21666,102.47283L236.17673,102.9528
				L236.89678,105.11265L238.09687,105.59261L238.5769,105.8326L238.33688,106.55255L240.73705,109.43234L241.21709,109.19236L240.49704,107.03251
				L241.69712,107.03251L241.4571,105.35263L241.69712,105.11265L242.89721,105.59261L243.37724,105.35263L243.13722,104.87266L
				242.41717,104.3927L242.41717,103.19278L242.65719,103.19278L242.65719,102.9528L242.65719,102.71281L243.13722,101.99287L242.41717,101.5129
				L242.17715,101.5129L241.93714,101.5129L241.69712,101.27292L241.69712,100.79295L241.4571,100.55297L241.4571,99.11307L242.65719,100.073
				L243.37724,100.073L243.37724,99.11307L243.37724,98.87308L242.89721,95.7533L241.93714,94.55339L239.77698,92.8735L239.29695,91.4336
				L237.85685,90.47367L237.85685,89.03377L237.1368,88.79379L236.89678,88.55381L236.65676,88.55381L236.65676,88.31382L236.65676,88.07384
				L236.65676,87.83386L236.89678,87.59387L236.89678,87.35389L236.65676,87.11391L236.65676,86.87392L236.41675,86.87392L236.17673,86.87392
				L235.93671,86.87392L235.6967,86.87392L235.6967,87.11391L235.45668,86.87392L235.21666,86.87392L235.21666,86.63394L234.97664,86.63394
				L234.97664,86.39396L234.97664,86.15397L234.73663,85.91399L234.97664,85.91399L234.73663,85.67401L234.49661,85.67401L234.25659,85.67401
				L234.25659,85.43402L234.01658,85.43402L234.01658,85.19404L233.77656,85.19404L233.77656,84.95406L233.77656,84.71407L233.53654,84.71407
				L233.53654,84.47409L233.29653,84.47409L233.05651,84.47409L232.81649,84.47409L232.57647,84.47409L232.33646,84.23411L232.09644,84.23411
				L232.09644,83.99412L232.09644,83.75414L231.85642,83.51416L230.1763,83.27417L230.1763,83.51416L230.1763,83.75414L230.41632,83.75414
				L230.65634,83.99412L230.65634,84.23411L227.77613,83.51416L226.57605,81.83428L226.81607,81.59429L227.05608,81.35431L227.05608,81.11433
				L227.05608,80.87434L227.05608,80.63436L227.05608,80.39438L227.05608,80.15439L227.05608,79.67443L227.2961,79.43444L227.53612,79.19446
				L227.53612,78.95448L227.2961,78.95448L227.05608,78.71449L226.57605,78.47451L226.33603,78.23453L225.856,77.99454L225.37596,77.99454
				L224.89593,77.75456L224.65591,77.75456L224.4159,77.75456L224.17588,77.75456L223.93586,77.99454L223.69585,77.99454L223.21581,77.75456
				L222.49576,78.47451L220.57562,78.47451L219.61556,78.23453L219.13552,78.23453L219.37554,77.99454L219.61556,77.75456L219.61556,77.51458
				L219.37554,77.51458L219.37554,77.27459L219.37554,77.03461L219.37554,76.79463L219.37554,76.55464L219.37554,76.31466L219.37554,76.07468
				L219.61556,75.8347L219.85557,75.59471L219.85557,75.35473L219.85557,75.11475L220.09559,74.87476L219.85557,74.63478L219.85557,74.3948
				L219.61556,74.3948L219.61556,74.15481L219.61556,73.91483L218.89551,73.67485L218.17545,73.43486L217.69542,73.19488L216.97537,72.47493
				L216.97537,72.23495L217.21539,72.23495L216.97537,69.59513L215.29525,68.6352L215.29525,68.87518L214.33518,68.39522L214.33518,68.15523
				L214.09517,67.91525L214.33518,66.71533L216.97537,65.03545L217.69542,65.27543L217.93544,63.83553L217.4554,62.8756L217.21539,62.8756
				L217.21539,62.63562L216.49534,62.15565L216.25532,62.15565L216.0153,61.91567L216.73535,60.47577L216.73535,60.23579L216.97537,60.23579
				L217.21539,60.23579L217.21539,60.71575L217.4554,60.71575L217.69542,60.71575L217.93544,60.95574L218.17545,60.95574L218.41547,60.95574
				L218.89551,60.95574L219.13552,60.71575L219.37554,60.71575L219.61556,60.71575L219.61556,60.95574L219.85557,60.95574L220.09559,61.19572
				L220.33561,61.19572L220.57562,61.19572L220.57562,61.4357L220.81564,61.4357L221.53569,62.15565L221.77571,62.15565L222.01573,62.15565
				L222.49576,61.91567L222.73578,61.91567L222.97579,62.15565L223.21581,62.15565L223.45583,62.15565L223.69585,61.4357L223.69585,60.23579
				L223.93586,59.75582L224.17588,58.79589L223.69585,58.07594L223.93586,58.07594L222.97579,57.116L222.73578,57.116L222.73578,56.87602
				L222.49576,56.63604L222.49576,56.39606L222.49576,56.15607L222.25574,56.15607L222.25574,55.91609L222.49576,55.67611L222.49576,55.43612
				L222.49576,55.19614L222.73578,54.95616L222.97579,54.95616L223.21581,55.19614L223.69585,55.19614L223.93586,54.23621L223.93586,53.99622
				L223.93586,53.51626L224.17588,53.27627L224.4159,53.03629L224.4159,52.79631L224.4159,52.31634L224.65591,52.07636L224.4159,51.83637
				L224.4159,51.59639L224.65591,51.59639L224.89593,51.59639L224.89593,51.35641L224.89593,51.11642L224.65591,50.87644L224.4159,50.63646
				L224.4159,50.39647L224.17588,50.15649L224.17588,49.91651L224.4159,49.67653L224.4159,49.43654L224.65591,49.19656L224.4159,48.95658
				L224.4159,48.71659L224.17588,48.47661L224.17588,47.99664L224.17588,47.51668L224.4159,47.51668L224.65591,47.27669L224.65591,47.03671
				L224.89593,47.03671L224.89593,46.79673L225.13595,46.55674L225.13595,46.31676L225.13595,46.07678L224.89593,46.07678L224.89593,45.83679
				L224.65591,45.83679L224.65591,45.59681L224.4159,45.59681L224.4159,45.35683L224.4159,45.11684L224.65591,45.35683L224.89593,45.35683
				L225.13595,45.35683L225.37596,45.35683L225.61598,45.35683L225.856,45.35683L225.856,45.59681L226.09602,45.59681L226.33603,45.83679
				L226.57605,45.83679L226.57605,46.07678L227.2961,45.59681L227.53612,45.83679L227.77613,46.07678L228.01615,46.07678L228.25617,46.31676
				L228.49619,46.31676L228.7362,46.55674L228.97622,46.79673L229.45625,46.31676L229.69627,46.55674L230.89636,47.51668L231.13637,47.51668
				L231.61641,48.23663L232.09644,48.47661L232.33646,48.71659L232.57647,48.95658L234.25659,46.07678L233.77656,45.59681L233.77656,45.83679
				L233.05651,45.35683L232.81649,45.35683L232.33646,45.11684L232.09644,44.87686L231.85642,44.63688L231.61641,44.87686L230.89636,44.63688
				L228.7362,43.91693L229.45625,43.43696L230.1763,43.19698L230.89636,43.19698L231.85642,43.43696L232.81649,43.43696L233.53654,43.67694
				L234.01658,43.19698L234.97664,41.99706L235.21666,41.75708L236.41675,44.15691L237.85685,42.957L238.33688,42.957L239.05693,41.5171
				L239.53697,41.27711L239.77698,40.31718L239.29695,40.31718L238.33688,39.59723L237.85685,39.59723L239.05693,38.6373L240.25702,37.91735
				L240.25702,37.67736L240.25702,37.43738L240.49704,37.1974L240.73705,35.51752L240.73705,34.07762L241.4571,32.63772L242.89721,33.83763
				L243.61726,33.83763L250.81777,34.79757"/>
			<path clip-path="url(#SVG_CP_1)" fill="none" stroke="#6E6E6E" stroke-width="0.48003" stroke-miterlimit="10" stroke-linecap="round" stroke-linejoin="round" d="
				M90.24639,231.5838L91.20646,232.54373L91.6865,232.06377L92.16653,231.82378L92.40655,231.5838L93.1266,230.86385L92.88658,230.1439
				L89.76636,228.22403L88.80629,228.704L88.56627,228.94398L88.80629,229.18397L89.04631,229.66393L89.04631,230.1439L89.52634,230.1439
				L89.76636,230.86385L90.00638,231.10383L89.76636,231.10383L90.24639,231.34382L90.24639,231.5838"/>
		</g>
	</g>
</svg>
