<?xml version="1.0" encoding="utf-8" standalone="no"?>
<!-- Creator: Esri ArcMap 10.2.1.3497 -->
<!DOCTYPE svg PUBLIC "-//W3C//DTD SVG 1.1//EN"  "http://www.w3.org/Graphics/SVG/1.1/DTD/svg11.dtd">
<svg width="303.47717pt" height="303.47717pt" viewBox="0 0 303.47717 303.47717" enable-background="new 0 0 303.47717 303.47717"
	version="1.1" xmlns="http://www.w3.org/2000/svg" xmlns:xlink="http://www.w3.org/1999/xlink" >
	<g id="Other">
		<clipPath id="SVG_CP_1">
			<path d="M0,303.47717L0,0L303.47717,0L303.47717,303.47717L0,303.47717z"/>
		</clipPath>
		<path clip-path="url(#SVG_CP_1)" fill="#FFFFFF" fill-rule="evenodd" stroke="none" d="M0,303.76497L0,0L303.74062,0L303.74062,303.76497
			L0,303.76497z"/>
	</g>
	<g id="Layers">
		<g id="ESMK2011_ds_kuviot">
			<clipPath id="SVG_CP_2">
				<path d="M10.08467,293.67949L10.08467,10.08548L293.89606,10.08548L293.89606,293.67949L10.08467,293.67949z"/>
			</clipPath>
			<path clip-path="url(#SVG_CP_2)" fill="#A7CFB4" fill-rule="evenodd" stroke="#6E6E6E" stroke-width="0.48022" stroke-miterlimit="10" stroke-linecap="round" stroke-linejoin="round" d="
				M77.31579,307.84719L84.75924,298.24197L85.23946,296.32093L90.04169,289.59728L103.72802,272.54802L113.33247,264.14345L128.45947,267.02502
				L147.90848,283.59402L173.60037,307.84719L77.31579,307.84719z"/>
			<path clip-path="url(#SVG_CP_2)" fill="#A7CFB4" fill-rule="evenodd" stroke="#6E6E6E" stroke-width="0.48022" stroke-miterlimit="10" stroke-linecap="round" stroke-linejoin="round" d="
				M226.66494,212.03515L212.49838,202.18981L215.61982,200.98915L227.14516,187.06159L236.5095,172.65377L256.19861,194.02537L
				285.49217,205.07137L283.57128,212.27528L281.41028,224.2818L277.80862,232.9265L270.84539,237.24885L266.52339,240.8508L252.83705,224.2818
				L244.43316,215.15685L234.10838,213.23581L226.66494,212.03515z"/>
			<path clip-path="url(#SVG_CP_2)" fill="#DCF5E9" fill-rule="evenodd" stroke="#6E6E6E" stroke-width="0.48022" stroke-miterlimit="10" stroke-linecap="round" stroke-linejoin="round" d="
				M307.82251,279.5118L294.37629,297.28145L290.53451,302.32419L281.89051,286.47558L272.52617,278.31115L266.7635,270.8671L266.7635,259.10071
				L264.36239,248.05471L264.36239,242.53172L266.52339,240.8508L270.84539,237.24885L277.80862,232.9265L281.41028,224.2818L283.57128,212.27528
				L285.49217,205.07137L302.05984,224.76206L307.82251,226.68311L307.82251,279.5118z"/>
			<path clip-path="url(#SVG_CP_2)" fill="#4A8758" fill-rule="evenodd" stroke="#6E6E6E" stroke-width="0.48022" stroke-miterlimit="10" stroke-linecap="round" stroke-linejoin="round" d="
				M307.82251,226.68311L302.05984,224.76206L285.49217,205.07137L288.85373,200.02863L298.69829,187.06159L303.50051,182.25898
				L307.82251,185.14055L307.82251,226.68311z"/>
			<path clip-path="url(#SVG_CP_2)" fill="#76A882" fill-rule="evenodd" stroke="#6E6E6E" stroke-width="0.48022" stroke-miterlimit="10" stroke-linecap="round" stroke-linejoin="round" d="
				M197.37138,276.3901L188.24715,261.26189L181.76415,244.69289L171.19926,231.00546L169.03826,222.84102L165.91681,214.19633L
				180.08337,209.15359L188.72737,209.15359L205.77527,204.35098L212.49838,202.18981L226.66494,212.03515L234.10838,213.23581L
				244.43316,215.15685L252.83705,224.2818L266.52339,240.8508L264.36239,242.53172L264.36239,248.05471L266.7635,259.10071L266.7635,270.8671
				L266.04317,270.14671L261.48106,278.31115L257.87939,288.15649L254.03761,298.72223L242.9925,304.48536L230.74683,302.56432L
				214.89949,295.60054L200.97304,285.75519L197.37138,276.3901z"/>
			<path clip-path="url(#SVG_CP_2)" fill="#A7CFB4" fill-rule="evenodd" stroke="#6E6E6E" stroke-width="0.48022" stroke-miterlimit="10" stroke-linecap="round" stroke-linejoin="round" d="
				M-4.08189,244.69289L0,253.09745L7.20334,269.90658L13.68634,281.19271L17.52812,285.51506L-3.12145,307.84719L-4.08189,307.84719
				L-4.08189,244.69289z"/>
			<path clip-path="url(#SVG_CP_2)" fill="#DCF5E9" fill-rule="evenodd" stroke="#6E6E6E" stroke-width="0.48022" stroke-miterlimit="10" stroke-linecap="round" stroke-linejoin="round" d="
				M56.18601,226.20285L47.06179,213.71607L38.89801,203.63059L28.57323,193.30498L14.88689,180.8182L18.48856,176.73598L24.49134,170.73272
				L26.17212,169.53207L32.1749,165.44985L38.89801,161.8479L42.49968,166.65051L49.4629,179.13729L59.78768,192.34446L71.0729,201.70955
				L79.4768,210.11411L83.07846,214.19633L63.38935,235.56793L62.18879,237.00872L60.2679,232.9265L56.18601,226.20285z"/>
			<path clip-path="url(#SVG_CP_2)" fill="#4A8758" fill-rule="evenodd" stroke="#6E6E6E" stroke-width="0.48022" stroke-miterlimit="10" stroke-linecap="round" stroke-linejoin="round" d="
				M63.38935,235.56793L83.07846,214.19633L115.25336,179.13729L128.21936,191.62407L142.62603,206.03189L147.90848,214.91672L146.94803,215.39698
				L142.14581,217.79828L129.90014,223.56141L100.36647,232.44624L87.64057,237.00872L70.59268,245.89354L63.38935,235.56793z"/>
			<path clip-path="url(#SVG_CP_2)" fill="#76A882" fill-rule="evenodd" stroke="#6E6E6E" stroke-width="0.48022" stroke-miterlimit="10" stroke-linecap="round" stroke-linejoin="round" d="
				M173.60037,307.84719L147.90848,283.59402L128.45947,267.02502L113.33247,264.14345L103.72802,272.54802L90.04169,289.59728L
				85.23946,296.32093L84.75924,298.24197L77.31579,307.84719L59.78768,307.84719L48.50246,297.04132L56.18601,293.43936L64.83001,284.31441
				L77.79602,268.4658L76.59546,254.53824L70.59268,245.89354L87.64057,237.00872L100.36647,232.44624L129.90014,223.56141L142.14581,217.79828
				L147.90848,252.61719L158.47337,266.0645L185.36582,287.4361L206.97582,307.84719L173.60037,307.84719z"/>
			<path clip-path="url(#SVG_CP_2)" fill="#76A882" fill-rule="evenodd" stroke="#6E6E6E" stroke-width="0.48022" stroke-miterlimit="10" stroke-linecap="round" stroke-linejoin="round" d="
				M-3.12145,307.84719L17.52812,285.51506L31.21445,298.72223L41.53923,300.40314L48.50246,297.04132L59.78768,307.84719L-3.12145,307.84719
				z"/>
			<path clip-path="url(#SVG_CP_2)" fill="#DCF5E9" fill-rule="evenodd" stroke="#6E6E6E" stroke-width="0.48022" stroke-miterlimit="10" stroke-linecap="round" stroke-linejoin="round" d="
				M17.52812,285.51506L62.18879,237.00872L63.38935,235.56793L70.59268,245.89354L76.59546,254.53824L77.79602,268.4658L64.83001,284.31441
				L56.18601,293.43936L48.50246,297.04132L41.53923,300.40314L31.21445,298.72223L17.52812,285.51506z"/>
			<path clip-path="url(#SVG_CP_2)" fill="#A7CFB4" fill-rule="evenodd" stroke="#6E6E6E" stroke-width="0.48022" stroke-miterlimit="10" stroke-linecap="round" stroke-linejoin="round" d="
				M206.97582,307.84719L185.36582,287.4361L158.47337,266.0645L147.90848,252.61719L142.14581,217.79828L146.94803,215.39698L159.1937,212.51541
				L165.43659,212.99567L165.91681,214.19633L169.03826,222.84102L171.19926,231.00546L181.76415,244.69289L188.24715,261.26189
				L197.37138,276.3901L200.97304,285.75519L214.89949,295.60054L230.74683,302.56432L242.9925,304.48536L254.03761,298.72223L257.87939,288.15649
				L261.48106,278.31115L266.04317,270.14671L266.7635,270.8671L272.52617,278.31115L281.89051,286.47558L290.53451,302.32419L287.65317,305.92614
				L286.45262,307.84719L206.97582,307.84719z"/>
			<path clip-path="url(#SVG_CP_2)" fill="#DCF5E9" fill-rule="evenodd" stroke="#6E6E6E" stroke-width="0.48022" stroke-miterlimit="10" stroke-linecap="round" stroke-linejoin="round" d="
				M-4.08189,165.44985L1.68078,170.01233L14.88689,180.8182L28.57323,193.30498L38.89801,203.63059L47.06179,213.71607L56.18601,226.20285
				L60.2679,232.9265L62.18879,237.00872L17.52812,285.51506L13.68634,281.19271L7.20334,269.90658L0,253.09745L-4.08189,244.69289
				L-4.08189,165.44985z"/>
			<path clip-path="url(#SVG_CP_2)" fill="#76A882" fill-rule="evenodd" stroke="#6E6E6E" stroke-width="0.48022" stroke-miterlimit="10" stroke-linecap="round" stroke-linejoin="round" d="
				M-4.08189,118.62442L-1.92089,131.35134L-0.72033,140.95655L0.48022,143.83812L7.20334,153.44333L17.288,163.52881L24.49134,170.73272
				L18.48856,176.73598L14.88689,180.8182L1.68078,170.01233L-4.08189,165.44985L-4.08189,118.62442z"/>
			<path clip-path="url(#SVG_CP_2)" fill="#A7CFB4" fill-rule="evenodd" stroke="#6E6E6E" stroke-width="0.48022" stroke-miterlimit="10" stroke-linecap="round" stroke-linejoin="round" d="
				M-4.08189,99.41399L4.08189,97.73308L13.68634,98.45347L20.88967,103.73634L24.97156,110.94025L24.97156,118.14416L21.36989,130.15068
				L20.88967,134.2329L22.57045,139.03551L30.49412,150.32164L38.89801,161.8479L32.1749,165.44985L26.17212,169.53207L24.49134,170.73272
				L17.288,163.52881L7.20334,153.44333L0.48022,143.83812L-0.72033,140.95655L-1.92089,131.35134L-4.08189,118.62442L-4.08189,99.41399
				z"/>
			<path clip-path="url(#SVG_CP_2)" fill="#A7CFB4" fill-rule="evenodd" stroke="#6E6E6E" stroke-width="0.48022" stroke-miterlimit="10" stroke-linecap="round" stroke-linejoin="round" d="
				M-4.08189,36.49982L-0.72033,37.46034L10.805,43.4636L19.68912,49.94713L22.09023,55.95039L22.57045,66.75625L28.09301,80.44369
				L37.69745,94.37125L46.58157,99.65412L56.18601,100.13438L62.66901,101.33503L68.67179,108.05869L73.95424,118.86455L79.95702,129.43029
				L90.76202,144.31838L100.36647,154.64398L108.77036,162.32816L115.25336,168.81168L120.05558,174.09455L115.25336,179.13729L
				83.07846,214.19633L79.4768,210.11411L71.0729,201.70955L59.78768,192.34446L49.4629,179.13729L42.49968,166.65051L38.89801,161.8479
				L30.49412,150.32164L22.57045,139.03551L20.88967,134.2329L21.36989,130.15068L24.97156,118.14416L24.97156,110.94025L20.88967,103.73634
				L13.68634,98.45347L4.08189,97.73308L-4.08189,99.41399L-4.08189,36.49982z"/>
			<path clip-path="url(#SVG_CP_2)" fill="#DCF5E9" fill-rule="evenodd" stroke="#6E6E6E" stroke-width="0.48022" stroke-miterlimit="10" stroke-linecap="round" stroke-linejoin="round" d="
				M37.69745,94.37125L28.09301,80.44369L22.57045,66.75625L22.09023,55.95039L33.37545,49.94713L55.46568,45.86491L69.87235,44.66426
				L83.55869,39.38139L94.84391,33.85839L105.64891,32.17748L117.65447,34.57878L128.93969,37.46034L135.66281,40.58204L139.7447,44.184
				L143.82659,48.26621L151.02992,57.87143L159.43381,66.75625L164.23604,72.03912L174.3207,82.84499L184.64548,95.33177L188.72737,99.65412
				L181.04382,108.05869L120.05558,174.09455L115.25336,168.81168L108.77036,162.32816L100.36647,154.64398L90.76202,144.31838L
				79.95702,129.43029L73.95424,118.86455L68.67179,108.05869L62.66901,101.33503L56.18601,100.13438L46.58157,99.65412L37.69745,94.37125
				z"/>
			<path clip-path="url(#SVG_CP_2)" fill="#76A882" fill-rule="evenodd" stroke="#6E6E6E" stroke-width="0.48022" stroke-miterlimit="10" stroke-linecap="round" stroke-linejoin="round" d="
				M-4.08189,9.36509L9.84456,-4.08222L132.54136,-4.08222L132.06114,-3.1217L128.93969,7.68417L128.45947,18.49004L128.45947,30.97682
				L128.93969,37.46034L117.65447,34.57878L105.64891,32.17748L94.84391,33.85839L83.55869,39.38139L69.87235,44.66426L55.46568,45.86491
				L33.37545,49.94713L22.09023,55.95039L19.68912,49.94713L10.805,43.4636L-0.72033,37.46034L-4.08189,36.49982L-4.08189,9.36509
				z"/>
			<path clip-path="url(#SVG_CP_2)" fill="#A7CFB4" fill-rule="evenodd" stroke="#6E6E6E" stroke-width="0.48022" stroke-miterlimit="10" stroke-linecap="round" stroke-linejoin="round" d="
				M174.3207,82.84499L164.23604,72.03912L159.43381,66.75625L171.43937,63.1543L183.92515,60.27273L195.93071,60.27273L204.81482,61.47339
				L210.33738,64.35495L215.61982,69.87795L215.85994,70.11808L208.6566,77.80225L190.88837,97.25282L188.72737,99.65412L184.64548,95.33177
				L174.3207,82.84499z"/>
			<path clip-path="url(#SVG_CP_2)" fill="#76A882" fill-rule="evenodd" stroke="#6E6E6E" stroke-width="0.48022" stroke-miterlimit="10" stroke-linecap="round" stroke-linejoin="round" d="
				M284.29162,-4.08222L254.99806,27.615L254.51783,25.45382L251.39639,16.569L246.11394,5.28287L244.43316,-4.08222L284.29162,-4.08222
				z"/>
			<path clip-path="url(#SVG_CP_2)" fill="#76A882" fill-rule="evenodd" stroke="#6E6E6E" stroke-width="0.48022" stroke-miterlimit="10" stroke-linecap="round" stroke-linejoin="round" d="
				M244.43316,-4.08222L246.11394,5.28287L251.39639,16.569L254.51783,25.45382L254.99806,27.615L215.85994,70.11808L215.61982,69.87795
				L210.33738,64.35495L204.81482,61.47339L195.93071,60.27273L183.92515,60.27273L171.43937,63.1543L159.43381,66.75625L151.02992,57.87143
				L143.82659,48.26621L139.7447,44.184L135.66281,40.58204L128.93969,37.46034L128.45947,30.97682L128.45947,18.49004L128.93969,7.68417
				L132.06114,-3.1217L132.54136,-4.08222L244.43316,-4.08222z"/>
			<path clip-path="url(#SVG_CP_2)" fill="#76A882" fill-rule="evenodd" stroke="#6E6E6E" stroke-width="0.48022" stroke-miterlimit="10" stroke-linecap="round" stroke-linejoin="round" d="
				M307.82251,185.14055L303.50051,182.25898L303.98073,181.77872L297.49773,173.61429L279.48939,156.80516L263.88217,142.1572L
				244.67328,118.86455L224.74405,98.21334L224.74405,96.2923L208.6566,77.80225L215.85994,70.11808L254.99806,27.615L284.29162,-4.08222
				L307.82251,-4.08222L307.82251,185.14055z"/>
			<path clip-path="url(#SVG_CP_2)" fill="#76A882" fill-rule="evenodd" stroke="#6E6E6E" stroke-width="0.48022" stroke-miterlimit="10" stroke-linecap="round" stroke-linejoin="round" d="
				M220.18194,154.88412L201.69338,135.67368L200.97304,133.51251L193.5296,117.18364L181.04382,108.05869L188.72737,99.65412L190.88837,97.25282
				L208.6566,77.80225L224.74405,96.2923L224.74405,98.21334L244.67328,118.86455L263.88217,142.1572L279.48939,156.80516L297.49773,173.61429
				L303.98073,181.77872L303.50051,182.25898L298.69829,187.06159L288.85373,200.02863L285.49217,205.07137L256.19861,194.02537
				L236.5095,172.65377L236.98972,171.93337L220.18194,154.88412z"/>
			<path clip-path="url(#SVG_CP_2)" fill="#DCF5E9" fill-rule="evenodd" stroke="#6E6E6E" stroke-width="0.48022" stroke-miterlimit="10" stroke-linecap="round" stroke-linejoin="round" d="
				M115.25336,179.13729L120.05558,174.09455L181.04382,108.05869L193.5296,117.18364L200.97304,133.51251L201.69338,135.67368L
				220.18194,154.88412L236.98972,171.93337L236.5095,172.65377L227.14516,187.06159L215.61982,200.98915L212.49838,202.18981L205.77527,204.35098
				L188.72737,209.15359L180.08337,209.15359L165.91681,214.19633L165.43659,212.99567L159.1937,212.51541L146.94803,215.39698L
				147.90848,214.91672L142.62603,206.03189L128.21936,191.62407L115.25336,179.13729z"/>
			<path clip-path="url(#SVG_CP_2)" fill="#A7CFB4" fill-rule="evenodd" stroke="#6E6E6E" stroke-width="0.48022" stroke-miterlimit="10" stroke-linecap="round" stroke-linejoin="round" d="
				M226.66494,212.03515L212.49838,202.18981L215.61982,200.98915L227.14516,187.06159L236.5095,172.65377L256.19861,194.02537L
				285.49217,205.07137L283.57128,212.27528L281.41028,224.2818L277.80862,232.9265L270.84539,237.24885L266.52339,240.8508L252.83705,224.2818
				L244.43316,215.15685L234.10838,213.23581L226.66494,212.03515z"/>
			<path clip-path="url(#SVG_CP_2)" fill="#DCF5E9" fill-rule="evenodd" stroke="#6E6E6E" stroke-width="0.48022" stroke-miterlimit="10" stroke-linecap="round" stroke-linejoin="round" d="
				M307.82251,279.5118L294.37629,297.28145L290.53451,302.32419L281.89051,286.47558L272.52617,278.31115L266.7635,270.8671L266.7635,259.10071
				L264.36239,248.05471L264.36239,242.53172L266.52339,240.8508L270.84539,237.24885L277.80862,232.9265L281.41028,224.2818L283.57128,212.27528
				L285.49217,205.07137L302.05984,224.76206L307.82251,226.68311L307.82251,279.5118z"/>
			<path clip-path="url(#SVG_CP_2)" fill="#76A882" fill-rule="evenodd" stroke="#6E6E6E" stroke-width="0.48022" stroke-miterlimit="10" stroke-linecap="round" stroke-linejoin="round" d="
				M307.82251,226.68311L302.05984,224.76206L285.49217,205.07137L288.85373,200.02863L298.69829,187.06159L303.50051,182.25898
				L307.82251,185.14055L307.82251,226.68311z"/>
			<path clip-path="url(#SVG_CP_2)" fill="#DCF5E9" fill-rule="evenodd" stroke="#6E6E6E" stroke-width="0.48022" stroke-miterlimit="10" stroke-linecap="round" stroke-linejoin="round" d="
				M56.18601,226.20285L47.06179,213.71607L38.89801,203.63059L28.57323,193.30498L14.88689,180.8182L18.48856,176.73598L24.49134,170.73272
				L26.17212,169.53207L32.1749,165.44985L38.89801,161.8479L42.49968,166.65051L49.4629,179.13729L59.78768,192.34446L71.0729,201.70955
				L79.4768,210.11411L83.07846,214.19633L63.38935,235.56793L62.18879,237.00872L60.2679,232.9265L56.18601,226.20285z"/>
			<path clip-path="url(#SVG_CP_2)" fill="#76A882" fill-rule="evenodd" stroke="#6E6E6E" stroke-width="0.48022" stroke-miterlimit="10" stroke-linecap="round" stroke-linejoin="round" d="
				M63.38935,235.56793L83.07846,214.19633L115.25336,179.13729L128.21936,191.62407L142.62603,206.03189L147.90848,214.91672L146.94803,215.39698
				L142.14581,217.79828L129.90014,223.56141L100.36647,232.44624L87.64057,237.00872L70.59268,245.89354L63.38935,235.56793z"/>
			<path clip-path="url(#SVG_CP_2)" fill="#A7CFB4" fill-rule="evenodd" stroke="#6E6E6E" stroke-width="0.48022" stroke-miterlimit="10" stroke-linecap="round" stroke-linejoin="round" d="
				M173.60037,307.84719L147.90848,283.59402L128.45947,267.02502L113.33247,264.14345L103.72802,272.54802L90.04169,289.59728L
				85.23946,296.32093L84.75924,298.24197L77.31579,307.84719L59.78768,307.84719L48.50246,297.04132L56.18601,293.43936L64.83001,284.31441
				L77.79602,268.4658L76.59546,254.53824L70.59268,245.89354L87.64057,237.00872L100.36647,232.44624L129.90014,223.56141L142.14581,217.79828
				L147.90848,252.61719L158.47337,266.0645L185.36582,287.4361L206.97582,307.84719L173.60037,307.84719z"/>
			<path clip-path="url(#SVG_CP_2)" fill="#A7CFB4" fill-rule="evenodd" stroke="#6E6E6E" stroke-width="0.48022" stroke-miterlimit="10" stroke-linecap="round" stroke-linejoin="round" d="
				M206.97582,307.84719L185.36582,287.4361L158.47337,266.0645L147.90848,252.61719L142.14581,217.79828L146.94803,215.39698L159.1937,212.51541
				L165.43659,212.99567L165.91681,214.19633L169.03826,222.84102L171.19926,231.00546L181.76415,244.69289L188.24715,261.26189
				L197.37138,276.3901L200.97304,285.75519L214.89949,295.60054L230.74683,302.56432L242.9925,304.48536L254.03761,298.72223L257.87939,288.15649
				L261.48106,278.31115L266.04317,270.14671L266.7635,270.8671L272.52617,278.31115L281.89051,286.47558L290.53451,302.32419L287.65317,305.92614
				L286.45262,307.84719L206.97582,307.84719z"/>
			<path clip-path="url(#SVG_CP_2)" fill="#DCF5E9" fill-rule="evenodd" stroke="#6E6E6E" stroke-width="0.48022" stroke-miterlimit="10" stroke-linecap="round" stroke-linejoin="round" d="
				M-4.08189,165.44985L1.68078,170.01233L14.88689,180.8182L28.57323,193.30498L38.89801,203.63059L47.06179,213.71607L56.18601,226.20285
				L60.2679,232.9265L62.18879,237.00872L17.52812,285.51506L13.68634,281.19271L7.20334,269.90658L0,253.09745L-4.08189,244.69289
				L-4.08189,165.44985z"/>
			<path clip-path="url(#SVG_CP_2)" fill="#76A882" fill-rule="evenodd" stroke="#6E6E6E" stroke-width="0.48022" stroke-miterlimit="10" stroke-linecap="round" stroke-linejoin="round" d="
				M-4.08189,118.62442L-1.92089,131.35134L-0.72033,140.95655L0.48022,143.83812L7.20334,153.44333L17.288,163.52881L24.49134,170.73272
				L18.48856,176.73598L14.88689,180.8182L1.68078,170.01233L-4.08189,165.44985L-4.08189,118.62442z"/>
			<path clip-path="url(#SVG_CP_2)" fill="#A7CFB4" fill-rule="evenodd" stroke="#6E6E6E" stroke-width="0.48022" stroke-miterlimit="10" stroke-linecap="round" stroke-linejoin="round" d="
				M-4.08189,99.41399L4.08189,97.73308L13.68634,98.45347L20.88967,103.73634L24.97156,110.94025L24.97156,118.14416L21.36989,130.15068
				L20.88967,134.2329L22.57045,139.03551L30.49412,150.32164L38.89801,161.8479L32.1749,165.44985L26.17212,169.53207L24.49134,170.73272
				L17.288,163.52881L7.20334,153.44333L0.48022,143.83812L-0.72033,140.95655L-1.92089,131.35134L-4.08189,118.62442L-4.08189,99.41399
				z"/>
			<path clip-path="url(#SVG_CP_2)" fill="#A7CFB4" fill-rule="evenodd" stroke="#6E6E6E" stroke-width="0.48022" stroke-miterlimit="10" stroke-linecap="round" stroke-linejoin="round" d="
				M-4.08189,36.49982L-0.72033,37.46034L10.805,43.4636L19.68912,49.94713L22.09023,55.95039L22.57045,66.75625L28.09301,80.44369
				L37.69745,94.37125L46.58157,99.65412L56.18601,100.13438L62.66901,101.33503L68.67179,108.05869L73.95424,118.86455L79.95702,129.43029
				L90.76202,144.31838L100.36647,154.64398L108.77036,162.32816L115.25336,168.81168L120.05558,174.09455L115.25336,179.13729L
				83.07846,214.19633L79.4768,210.11411L71.0729,201.70955L59.78768,192.34446L49.4629,179.13729L42.49968,166.65051L38.89801,161.8479
				L30.49412,150.32164L22.57045,139.03551L20.88967,134.2329L21.36989,130.15068L24.97156,118.14416L24.97156,110.94025L20.88967,103.73634
				L13.68634,98.45347L4.08189,97.73308L-4.08189,99.41399L-4.08189,36.49982z"/>
			<path clip-path="url(#SVG_CP_2)" fill="#DCF5E9" fill-rule="evenodd" stroke="#6E6E6E" stroke-width="0.48022" stroke-miterlimit="10" stroke-linecap="round" stroke-linejoin="round" d="
				M37.69745,94.37125L28.09301,80.44369L22.57045,66.75625L22.09023,55.95039L33.37545,49.94713L55.46568,45.86491L69.87235,44.66426
				L83.55869,39.38139L94.84391,33.85839L105.64891,32.17748L117.65447,34.57878L128.93969,37.46034L135.66281,40.58204L139.7447,44.184
				L143.82659,48.26621L151.02992,57.87143L159.43381,66.75625L164.23604,72.03912L174.3207,82.84499L184.64548,95.33177L188.72737,99.65412
				L181.04382,108.05869L120.05558,174.09455L115.25336,168.81168L108.77036,162.32816L100.36647,154.64398L90.76202,144.31838L
				79.95702,129.43029L73.95424,118.86455L68.67179,108.05869L62.66901,101.33503L56.18601,100.13438L46.58157,99.65412L37.69745,94.37125
				z"/>
			<path clip-path="url(#SVG_CP_2)" fill="#76A882" fill-rule="evenodd" stroke="#6E6E6E" stroke-width="0.48022" stroke-miterlimit="10" stroke-linecap="round" stroke-linejoin="round" d="
				M-4.08189,9.36509L9.84456,-4.08222L132.54136,-4.08222L132.06114,-3.1217L128.93969,7.68417L128.45947,18.49004L128.45947,30.97682
				L128.93969,37.46034L117.65447,34.57878L105.64891,32.17748L94.84391,33.85839L83.55869,39.38139L69.87235,44.66426L55.46568,45.86491
				L33.37545,49.94713L22.09023,55.95039L19.68912,49.94713L10.805,43.4636L-0.72033,37.46034L-4.08189,36.49982L-4.08189,9.36509
				z"/>
			<path clip-path="url(#SVG_CP_2)" fill="#76A882" fill-rule="evenodd" stroke="#6E6E6E" stroke-width="0.48022" stroke-miterlimit="10" stroke-linecap="round" stroke-linejoin="round" d="
				M284.29162,-4.08222L254.99806,27.615L254.51783,25.45382L251.39639,16.569L246.11394,5.28287L244.43316,-4.08222L284.29162,-4.08222
				z"/>
			<path clip-path="url(#SVG_CP_2)" fill="#A7CFB4" fill-rule="evenodd" stroke="#6E6E6E" stroke-width="0.48022" stroke-miterlimit="10" stroke-linecap="round" stroke-linejoin="round" d="
				M206.97582,307.84719L185.36582,287.4361L158.47337,266.0645L147.90848,252.61719L142.14581,217.79828L146.94803,215.39698L159.1937,212.51541
				L165.43659,212.99567L165.91681,214.19633L169.03826,222.84102L171.19926,231.00546L181.76415,244.69289L188.24715,261.26189
				L197.37138,276.3901L200.97304,285.75519L214.89949,295.60054L230.74683,302.56432L242.9925,304.48536L254.03761,298.72223L257.87939,288.15649
				L261.48106,278.31115L266.04317,270.14671L266.7635,270.8671L272.52617,278.31115L281.89051,286.47558L290.53451,302.32419L287.65317,305.92614
				L286.45262,307.84719L206.97582,307.84719z"/>
			<path clip-path="url(#SVG_CP_2)" fill="#DCF5E9" fill-rule="evenodd" stroke="#6E6E6E" stroke-width="0.48022" stroke-miterlimit="10" stroke-linecap="round" stroke-linejoin="round" d="
				M-4.08189,165.44985L1.68078,170.01233L14.88689,180.8182L28.57323,193.30498L38.89801,203.63059L47.06179,213.71607L56.18601,226.20285
				L60.2679,232.9265L62.18879,237.00872L17.52812,285.51506L13.68634,281.19271L7.20334,269.90658L0,253.09745L-4.08189,244.69289
				L-4.08189,165.44985z"/>
			<path clip-path="url(#SVG_CP_2)" fill="#76A882" fill-rule="evenodd" stroke="#6E6E6E" stroke-width="0.48022" stroke-miterlimit="10" stroke-linecap="round" stroke-linejoin="round" d="
				M-4.08189,118.62442L-1.92089,131.35134L-0.72033,140.95655L0.48022,143.83812L7.20334,153.44333L17.288,163.52881L24.49134,170.73272
				L18.48856,176.73598L14.88689,180.8182L1.68078,170.01233L-4.08189,165.44985L-4.08189,118.62442z"/>
			<path clip-path="url(#SVG_CP_2)" fill="#A7CFB4" fill-rule="evenodd" stroke="#6E6E6E" stroke-width="0.48022" stroke-miterlimit="10" stroke-linecap="round" stroke-linejoin="round" d="
				M-4.08189,99.41399L4.08189,97.73308L13.68634,98.45347L20.88967,103.73634L24.97156,110.94025L24.97156,118.14416L21.36989,130.15068
				L20.88967,134.2329L22.57045,139.03551L30.49412,150.32164L38.89801,161.8479L32.1749,165.44985L26.17212,169.53207L24.49134,170.73272
				L17.288,163.52881L7.20334,153.44333L0.48022,143.83812L-0.72033,140.95655L-1.92089,131.35134L-4.08189,118.62442L-4.08189,99.41399
				z"/>
			<path clip-path="url(#SVG_CP_2)" fill="#76A882" fill-rule="evenodd" stroke="#6E6E6E" stroke-width="0.48022" stroke-miterlimit="10" stroke-linecap="round" stroke-linejoin="round" d="
				M-4.08189,9.36509L9.84456,-4.08222L132.54136,-4.08222L132.06114,-3.1217L128.93969,7.68417L128.45947,18.49004L128.45947,30.97682
				L128.93969,37.46034L117.65447,34.57878L105.64891,32.17748L94.84391,33.85839L83.55869,39.38139L69.87235,44.66426L55.46568,45.86491
				L33.37545,49.94713L22.09023,55.95039L19.68912,49.94713L10.805,43.4636L-0.72033,37.46034L-4.08189,36.49982L-4.08189,9.36509
				z"/>
			<path clip-path="url(#SVG_CP_2)" fill="#76A882" fill-rule="evenodd" stroke="#6E6E6E" stroke-width="0.48022" stroke-miterlimit="10" stroke-linecap="round" stroke-linejoin="round" d="
				M284.29162,-4.08222L254.99806,27.615L254.51783,25.45382L251.39639,16.569L246.11394,5.28287L244.43316,-4.08222L284.29162,-4.08222
				z"/>
			<path clip-path="url(#SVG_CP_2)" fill="#A7CFB4" fill-rule="evenodd" stroke="#6E6E6E" stroke-width="0.48022" stroke-miterlimit="10" stroke-linecap="round" stroke-linejoin="round" d="
				M206.97582,307.84719L185.36582,287.4361L158.47337,266.0645L147.90848,252.61719L142.14581,217.79828L146.94803,215.39698L159.1937,212.51541
				L165.43659,212.99567L165.91681,214.19633L169.03826,222.84102L171.19926,231.00546L181.76415,244.69289L188.24715,261.26189
				L197.37138,276.3901L200.97304,285.75519L214.89949,295.60054L230.74683,302.56432L242.9925,304.48536L254.03761,298.72223L257.87939,288.15649
				L261.48106,278.31115L266.04317,270.14671L266.7635,270.8671L272.52617,278.31115L281.89051,286.47558L290.53451,302.32419L287.65317,305.92614
				L286.45262,307.84719L206.97582,307.84719z"/>
		</g>
	</g>
	<g id="Other_2">
		<clipPath id="SVG_CP_3">
			<path d="M0,303.47717L0,0L303.47717,0L303.47717,303.47717L0,303.47717z"/>
		</clipPath>
		<path clip-path="url(#SVG_CP_3)" fill="none" stroke="#000000" stroke-width="0.96045" stroke-miterlimit="10" stroke-linecap="round" stroke-linejoin="round" d="
			M19.92923,275.42958L19.92923,268.4658"/>
		<path clip-path="url(#SVG_CP_3)" fill="none" stroke="#000000" stroke-width="0.96045" stroke-miterlimit="10" stroke-linecap="round" stroke-linejoin="round" d="
			M79.71691,275.42958L79.71691,268.4658"/>
		<path clip-path="url(#SVG_CP_3)" fill="none" stroke="#000000" stroke-width="0.96045" stroke-miterlimit="10" stroke-linecap="round" stroke-linejoin="round" d="
			M139.50459,275.42958L139.50459,268.4658"/>
		<path clip-path="url(#SVG_CP_3)" fill="none" stroke="#000000" stroke-width="0.96045" stroke-miterlimit="10" stroke-linecap="round" stroke-linejoin="round" d="
			M35.05623,273.26841L35.05623,268.4658"/>
		<path clip-path="url(#SVG_CP_3)" fill="none" stroke="#000000" stroke-width="0.96045" stroke-miterlimit="10" stroke-linecap="round" stroke-linejoin="round" d="
			M49.94312,273.26841L49.94312,268.4658"/>
		<path clip-path="url(#SVG_CP_3)" fill="none" stroke="#000000" stroke-width="0.96045" stroke-miterlimit="10" stroke-linecap="round" stroke-linejoin="round" d="
			M64.83001,273.26841L64.83001,268.4658"/>
		<path clip-path="url(#SVG_CP_3)" fill="none" stroke="#000000" stroke-width="0.96045" stroke-miterlimit="10" stroke-linecap="round" stroke-linejoin="round" d="
			M94.84391,273.26841L94.84391,268.4658"/>
		<path clip-path="url(#SVG_CP_3)" fill="none" stroke="#000000" stroke-width="0.96045" stroke-miterlimit="10" stroke-linecap="round" stroke-linejoin="round" d="
			M109.7308,273.26841L109.7308,268.4658"/>
		<path clip-path="url(#SVG_CP_3)" fill="none" stroke="#000000" stroke-width="0.96045" stroke-miterlimit="10" stroke-linecap="round" stroke-linejoin="round" d="
			M124.61769,273.26841L124.61769,268.4658"/>
		<path clip-path="url(#SVG_CP_3)" fill="none" stroke="#000000" stroke-width="0.96045" stroke-miterlimit="10" stroke-linecap="round" stroke-linejoin="round" d="
			M19.92923,268.4658L139.50459,268.4658"/>
		<g font-family="'Arial'" font-size="1" kerning="0" font-weight="400" fill="#000000" clip-path="url(#SVG_CP_3)" >
			<text text-anchor="start" transform="matrix(9.84456 0 0 9.84535 17.16795 287.22388)" >
				<tspan direction="ltr" unicode-bidi="embed" x="0 ">0</tspan>
			</text>
		</g>
		<clipPath id="SVG_CP_4">
			<path d="M0,303.47717L0,0L303.47717,0L303.47717,303.47717L0,303.47717z"/>
		</clipPath>
		<g font-family="'Arial'" font-size="1" kerning="0" font-weight="400" fill="#000000" clip-path="url(#SVG_CP_4)" >
			<text text-anchor="start" transform="matrix(9.84456 0 0 9.84535 71.43307 287.22388)" >
				<tspan direction="ltr" unicode-bidi="embed" x="0 ">1</tspan>
				<tspan direction="ltr" unicode-bidi="embed" x="0.56102 ">0</tspan>
				<tspan direction="ltr" unicode-bidi="embed" x="1.12204 ">0</tspan>
			</text>
		</g>
		<g font-family="'Arial'" font-size="1" kerning="0" font-weight="400" fill="#000000" clip-path="url(#SVG_CP_4)" >
			<text text-anchor="start" transform="matrix(9.84456 0 0 9.84535 131.22075 287.22388)" >
				<tspan direction="ltr" unicode-bidi="embed" x="0 ">2</tspan>
				<tspan direction="ltr" unicode-bidi="embed" x="0.56102 ">0</tspan>
				<tspan direction="ltr" unicode-bidi="embed" x="1.12204 ">0</tspan>
			</text>
		</g>
		<g font-family="'Arial'" font-size="1" kerning="0" font-weight="400" fill="#000000" clip-path="url(#SVG_CP_4)" >
			<text text-anchor="start" transform="matrix(9.84456 0 0 9.84535 44.42057 287.22388)" >
				<tspan direction="ltr" unicode-bidi="embed" x="0 ">5</tspan>
				<tspan direction="ltr" unicode-bidi="embed" x="0.56102 ">0</tspan>
			</text>
		</g>
		<g font-family="'Arial'" font-size="1" kerning="0" font-weight="400" fill="#000000" clip-path="url(#SVG_CP_4)" >
			<text text-anchor="start" transform="matrix(9.84456 0 0 9.84535 151.02992 287.22388)" >
				<tspan direction="ltr" unicode-bidi="embed" x="0 ">M</tspan>
				<tspan direction="ltr" unicode-bidi="embed" x="0.82934 ">e</tspan>
				<tspan direction="ltr" unicode-bidi="embed" x="1.41475 ">t</tspan>
				<tspan direction="ltr" unicode-bidi="embed" x="1.68306 ">e</tspan>
				<tspan direction="ltr" unicode-bidi="embed" x="2.24408 ">r</tspan>
				<tspan direction="ltr" unicode-bidi="embed" x="2.58557 ">s</tspan>
			</text>
		</g>
	</g>
</svg>
